solid OpenSCAD_Model
  facet normal -1 0 0
    outer loop
      vertex -24.4 -14.9 0
      vertex -24.4 -14.9 1.5
      vertex -24.4 14.9 0
    endloop
  endfacet
  facet normal -1 0 0
    outer loop
      vertex -24.4 14.9 0
      vertex -24.4 -14.9 1.5
      vertex -24.4 14.9 1.5
    endloop
  endfacet
  facet normal 0 -1 0
    outer loop
      vertex -24.4 -14.9 1.5
      vertex -24.4 -14.9 0
      vertex 24.4 -14.9 0
    endloop
  endfacet
  facet normal 0 -1 0
    outer loop
      vertex 24.4 -14.9 1.5
      vertex -24.4 -14.9 1.5
      vertex 24.4 -14.9 0
    endloop
  endfacet
  facet normal 0 0 -1
    outer loop
      vertex -4.5 1.5 0
      vertex -24.4 14.9 0
      vertex -4.5 2.5 0
    endloop
  endfacet
  facet normal 0 0 -1
    outer loop
      vertex 24.4 4 0
      vertex -24.4 14.9 0
      vertex 24.4 14.9 0
    endloop
  endfacet
  facet normal 0 0 -1
    outer loop
      vertex 23.65 4 0
      vertex -24.4 14.9 0
      vertex 24.4 4 0
    endloop
  endfacet
  facet normal 0 0 -1
    outer loop
      vertex 23.65 -4 0
      vertex -24.4 14.9 0
      vertex 23.65 4 0
    endloop
  endfacet
  facet normal 0 0 -1
    outer loop
      vertex -1.5 2.5 0
      vertex -24.4 14.9 0
      vertex 23.65 -4 0
    endloop
  endfacet
  facet normal 0 0 -1
    outer loop
      vertex -4.5 -0.5 0
      vertex -24.4 14.9 0
      vertex -4.5 0.5 0
    endloop
  endfacet
  facet normal 0 0 -1
    outer loop
      vertex -24.4 -14.9 0
      vertex -24.4 14.9 0
      vertex -4.5 -1.5 0
    endloop
  endfacet
  facet normal 0 0 -1
    outer loop
      vertex -1.5 1.5 0
      vertex 24.4 -14.9 0
      vertex -1.5 0.5 0
    endloop
  endfacet
  facet normal 0 0 -1
    outer loop
      vertex -24.4 -14.9 0
      vertex -4.5 -1.5 0
      vertex -4.5 -2.5 0
    endloop
  endfacet
  facet normal 0 0 -1
    outer loop
      vertex -24.4 -14.9 0
      vertex -4.5 -2.5 0
      vertex 24.4 -14.9 0
    endloop
  endfacet
  facet normal 0 0 -1
    outer loop
      vertex -4.5 0.5 0
      vertex -24.4 14.9 0
      vertex -4.5 1.5 0
    endloop
  endfacet
  facet normal 0 0 -1
    outer loop
      vertex -1.5 -0.5 0
      vertex -1.5 -1.5 0
      vertex -4.5 -0.5 0
    endloop
  endfacet
  facet normal 0 0 -1
    outer loop
      vertex -1.5 -2.5 0
      vertex -1.5 -1.5 0
      vertex 24.4 -14.9 0
    endloop
  endfacet
  facet normal 0 0 -1
    outer loop
      vertex -4.5 0.5 0
      vertex -4.5 1.5 0
      vertex -1.5 0.5 0
    endloop
  endfacet
  facet normal 0 0 -1
    outer loop
      vertex -4.5 2.5 0
      vertex -24.4 14.9 0
      vertex -1.5 2.5 0
    endloop
  endfacet
  facet normal 0 0 -1
    outer loop
      vertex -4.5 -1.5 0
      vertex -24.4 14.9 0
      vertex -4.5 -0.5 0
    endloop
  endfacet
  facet normal 0 0 -1
    outer loop
      vertex -1.5 -2.5 0
      vertex 24.4 -14.9 0
      vertex -4.5 -2.5 0
    endloop
  endfacet
  facet normal 0 0 -1
    outer loop
      vertex -1.5 -1.5 0
      vertex -1.5 -0.5 0
      vertex 24.4 -14.9 0
    endloop
  endfacet
  facet normal 0 0 -1
    outer loop
      vertex -1.5 -0.5 0
      vertex -1.5 0.5 0
      vertex 24.4 -14.9 0
    endloop
  endfacet
  facet normal 0 0 -1
    outer loop
      vertex -1.5 1.5 0
      vertex -1.5 0.5 0
      vertex -4.5 1.5 0
    endloop
  endfacet
  facet normal 0 0 -1
    outer loop
      vertex 24.4 -14.9 0
      vertex -1.5 1.5 0
      vertex 23.65 -4 0
    endloop
  endfacet
  facet normal 0 0 -1
    outer loop
      vertex -1.5 1.5 0
      vertex -1.5 2.5 0
      vertex 23.65 -4 0
    endloop
  endfacet
  facet normal 0 0 -1
    outer loop
      vertex 24.4 -4 0
      vertex 24.4 -14.9 0
      vertex 23.65 -4 0
    endloop
  endfacet
  facet normal 0 0 -1
    outer loop
      vertex -4.5 -1.5 0
      vertex -4.5 -0.5 0
      vertex -1.5 -1.5 0
    endloop
  endfacet
  facet normal 0 1 0
    outer loop
      vertex -24.4 14.9 0
      vertex -24.4 14.9 1.5
      vertex 24.4 14.9 0
    endloop
  endfacet
  facet normal 0 1 0
    outer loop
      vertex 24.4 14.9 0
      vertex -24.4 14.9 1.5
      vertex 24.4 14.9 1.5
    endloop
  endfacet
  facet normal 0 0 1
    outer loop
      vertex -4.5 -2.5 1.5
      vertex -24.4 -14.9 1.5
      vertex 24.4 -14.9 1.5
    endloop
  endfacet
  facet normal 0 0 1
    outer loop
      vertex 24.4 -4 1.5
      vertex 23.65 -4 1.5
      vertex 24.4 -14.9 1.5
    endloop
  endfacet
  facet normal 0 0 1
    outer loop
      vertex -1.5 -2.5 1.5
      vertex -4.5 -2.5 1.5
      vertex 24.4 -14.9 1.5
    endloop
  endfacet
  facet normal 0 0 1
    outer loop
      vertex 24.4 4 1.5
      vertex -24.4 14.9 1.5
      vertex 23.65 4 1.5
    endloop
  endfacet
  facet normal 0 0 1
    outer loop
      vertex 24.4 14.9 1.5
      vertex -24.4 14.9 1.5
      vertex 24.4 4 1.5
    endloop
  endfacet
  facet normal 0 0 1
    outer loop
      vertex -4.5 0.5 1.5
      vertex -4.5 1.5 1.5
      vertex -24.4 14.9 1.5
    endloop
  endfacet
  facet normal 0 0 1
    outer loop
      vertex -24.4 14.9 1.5
      vertex -24.4 -14.9 1.5
      vertex -4.5 -2.5 1.5
    endloop
  endfacet
  facet normal 0 0 1
    outer loop
      vertex -24.4 14.9 1.5
      vertex -4.5 -2.5 1.5
      vertex -4.5 -1.5 1.5
    endloop
  endfacet
  facet normal 0 0 1
    outer loop
      vertex -1.5 0.5 1.5
      vertex -1.5 -0.5 1.5
      vertex 24.4 -14.9 1.5
    endloop
  endfacet
  facet normal 0 0 1
    outer loop
      vertex -4.5 -0.5 1.5
      vertex -4.5 -1.5 1.5
      vertex -1.5 -1.5 1.5
    endloop
  endfacet
  facet normal 0 0 1
    outer loop
      vertex -1.5 -1.5 1.5
      vertex -1.5 -2.5 1.5
      vertex 24.4 -14.9 1.5
    endloop
  endfacet
  facet normal 0 0 1
    outer loop
      vertex -24.4 14.9 1.5
      vertex -4.5 -1.5 1.5
      vertex -4.5 -0.5 1.5
    endloop
  endfacet
  facet normal 0 0 1
    outer loop
      vertex -24.4 14.9 1.5
      vertex -4.5 -0.5 1.5
      vertex -4.5 0.5 1.5
    endloop
  endfacet
  facet normal 0 0 1
    outer loop
      vertex -1.5 -0.5 1.5
      vertex -1.5 -1.5 1.5
      vertex 24.4 -14.9 1.5
    endloop
  endfacet
  facet normal 0 0 1
    outer loop
      vertex -4.5 1.5 1.5
      vertex -4.5 2.5 1.5
      vertex -24.4 14.9 1.5
    endloop
  endfacet
  facet normal 0 0 1
    outer loop
      vertex -1.5 1.5 1.5
      vertex -1.5 0.5 1.5
      vertex 24.4 -14.9 1.5
    endloop
  endfacet
  facet normal 0 0 1
    outer loop
      vertex -4.5 0.5 1.5
      vertex -1.5 0.5 1.5
      vertex -4.5 1.5 1.5
    endloop
  endfacet
  facet normal 0 0 1
    outer loop
      vertex -4.5 2.5 1.5
      vertex -1.5 2.5 1.5
      vertex -24.4 14.9 1.5
    endloop
  endfacet
  facet normal 0 0 1
    outer loop
      vertex 23.65 -4 1.5
      vertex -1.5 2.5 1.5
      vertex 24.4 -14.9 1.5
    endloop
  endfacet
  facet normal 0 0 1
    outer loop
      vertex 23.65 -4 1.5
      vertex -24.4 14.9 1.5
      vertex -1.5 2.5 1.5
    endloop
  endfacet
  facet normal 0 0 1
    outer loop
      vertex -1.5 2.5 1.5
      vertex -1.5 1.5 1.5
      vertex 24.4 -14.9 1.5
    endloop
  endfacet
  facet normal 0 0 1
    outer loop
      vertex 23.65 -4 1.5
      vertex 23.65 4 1.5
      vertex -24.4 14.9 1.5
    endloop
  endfacet
  facet normal 0 0 1
    outer loop
      vertex -1.5 -0.5 1.5
      vertex -4.5 -0.5 1.5
      vertex -1.5 -1.5 1.5
    endloop
  endfacet
  facet normal 0 0 1
    outer loop
      vertex -1.5 1.5 1.5
      vertex -4.5 1.5 1.5
      vertex -1.5 0.5 1.5
    endloop
  endfacet
  facet normal 1 0 0
    outer loop
      vertex 24.4 -14.9 1.5
      vertex 24.4 -14.9 0
      vertex 24.4 -4 0
    endloop
  endfacet
  facet normal 1 0 0
    outer loop
      vertex 24.4 -4 1.5
      vertex 24.4 -14.9 1.5
      vertex 24.4 -4 0
    endloop
  endfacet
  facet normal 0 1 0
    outer loop
      vertex 24.4 -4 1.5
      vertex 24.4 -4 0
      vertex 23.65 -4 1.5
    endloop
  endfacet
  facet normal 0 1 0
    outer loop
      vertex 23.65 -4 1.5
      vertex 24.4 -4 0
      vertex 23.65 -4 0
    endloop
  endfacet
  facet normal 1 0 0
    outer loop
      vertex 23.65 4 0
      vertex 23.65 4 1.5
      vertex 23.65 -4 1.5
    endloop
  endfacet
  facet normal 1 0 0
    outer loop
      vertex 23.65 -4 0
      vertex 23.65 4 0
      vertex 23.65 -4 1.5
    endloop
  endfacet
  facet normal 0 -1 0
    outer loop
      vertex 24.4 4 0
      vertex 24.4 4 1.5
      vertex 23.65 4 1.5
    endloop
  endfacet
  facet normal 0 -1 0
    outer loop
      vertex 23.65 4 0
      vertex 24.4 4 0
      vertex 23.65 4 1.5
    endloop
  endfacet
  facet normal 1 0 0
    outer loop
      vertex 24.4 4 1.5
      vertex 24.4 4 0
      vertex 24.4 14.9 0
    endloop
  endfacet
  facet normal 1 0 0
    outer loop
      vertex 24.4 14.9 1.5
      vertex 24.4 4 1.5
      vertex 24.4 14.9 0
    endloop
  endfacet
  facet normal 1 0 0
    outer loop
      vertex -4.5 -1.5 0
      vertex -4.5 -1.5 1.5
      vertex -4.5 -2.5 1.5
    endloop
  endfacet
  facet normal 1 0 0
    outer loop
      vertex -4.5 -2.5 0
      vertex -4.5 -1.5 0
      vertex -4.5 -2.5 1.5
    endloop
  endfacet
  facet normal 0 -1 0
    outer loop
      vertex -1.5 -1.5 0
      vertex -1.5 -1.5 1.5
      vertex -4.5 -1.5 1.5
    endloop
  endfacet
  facet normal 0 -1 0
    outer loop
      vertex -4.5 -1.5 0
      vertex -1.5 -1.5 0
      vertex -4.5 -1.5 1.5
    endloop
  endfacet
  facet normal -1 0 0
    outer loop
      vertex -1.5 -1.5 1.5
      vertex -1.5 -1.5 0
      vertex -1.5 -2.5 1.5
    endloop
  endfacet
  facet normal -1 0 0
    outer loop
      vertex -1.5 -2.5 1.5
      vertex -1.5 -1.5 0
      vertex -1.5 -2.5 0
    endloop
  endfacet
  facet normal 0 1 0
    outer loop
      vertex -1.5 -2.5 1.5
      vertex -1.5 -2.5 0
      vertex -4.5 -2.5 1.5
    endloop
  endfacet
  facet normal 0 1 0
    outer loop
      vertex -4.5 -2.5 1.5
      vertex -1.5 -2.5 0
      vertex -4.5 -2.5 0
    endloop
  endfacet
  facet normal 1 0 0
    outer loop
      vertex -4.5 0.5 0
      vertex -4.5 0.5 1.5
      vertex -4.5 -0.5 1.5
    endloop
  endfacet
  facet normal 1 0 0
    outer loop
      vertex -4.5 -0.5 0
      vertex -4.5 0.5 0
      vertex -4.5 -0.5 1.5
    endloop
  endfacet
  facet normal 0 -1 0
    outer loop
      vertex -1.5 0.5 0
      vertex -1.5 0.5 1.5
      vertex -4.5 0.5 1.5
    endloop
  endfacet
  facet normal 0 -1 0
    outer loop
      vertex -4.5 0.5 0
      vertex -1.5 0.5 0
      vertex -4.5 0.5 1.5
    endloop
  endfacet
  facet normal -1 0 0
    outer loop
      vertex -1.5 0.5 1.5
      vertex -1.5 0.5 0
      vertex -1.5 -0.5 1.5
    endloop
  endfacet
  facet normal -1 0 0
    outer loop
      vertex -1.5 -0.5 1.5
      vertex -1.5 0.5 0
      vertex -1.5 -0.5 0
    endloop
  endfacet
  facet normal 0 1 0
    outer loop
      vertex -1.5 -0.5 1.5
      vertex -1.5 -0.5 0
      vertex -4.5 -0.5 1.5
    endloop
  endfacet
  facet normal 0 1 0
    outer loop
      vertex -4.5 -0.5 1.5
      vertex -1.5 -0.5 0
      vertex -4.5 -0.5 0
    endloop
  endfacet
  facet normal 1 0 0
    outer loop
      vertex -4.5 2.5 0
      vertex -4.5 2.5 1.5
      vertex -4.5 1.5 1.5
    endloop
  endfacet
  facet normal 1 0 0
    outer loop
      vertex -4.5 1.5 0
      vertex -4.5 2.5 0
      vertex -4.5 1.5 1.5
    endloop
  endfacet
  facet normal 0 -1 0
    outer loop
      vertex -1.5 2.5 0
      vertex -1.5 2.5 1.5
      vertex -4.5 2.5 1.5
    endloop
  endfacet
  facet normal 0 -1 0
    outer loop
      vertex -4.5 2.5 0
      vertex -1.5 2.5 0
      vertex -4.5 2.5 1.5
    endloop
  endfacet
  facet normal -1 0 0
    outer loop
      vertex -1.5 2.5 1.5
      vertex -1.5 2.5 0
      vertex -1.5 1.5 1.5
    endloop
  endfacet
  facet normal -1 0 0
    outer loop
      vertex -1.5 1.5 1.5
      vertex -1.5 2.5 0
      vertex -1.5 1.5 0
    endloop
  endfacet
  facet normal 0 1 0
    outer loop
      vertex -1.5 1.5 1.5
      vertex -1.5 1.5 0
      vertex -4.5 1.5 1.5
    endloop
  endfacet
  facet normal 0 1 0
    outer loop
      vertex -4.5 1.5 1.5
      vertex -1.5 1.5 0
      vertex -4.5 1.5 0
    endloop
  endfacet
endsolid OpenSCAD_Model
