solid OpenSCAD_Model
  facet normal -1 0 0
    outer loop
      vertex -25.25 -15.75 0
      vertex -25.25 -15.75 25.6
      vertex -25.25 15.75 0
    endloop
  endfacet
  facet normal -1 0 0
    outer loop
      vertex -25.25 15.75 0
      vertex -25.25 -15.75 25.6
      vertex -25.25 15.75 25.6
    endloop
  endfacet
  facet normal 0 -1 0
    outer loop
      vertex -25.25 -15.75 25.6
      vertex -25.25 -15.75 0
      vertex 25.25 -15.75 0
    endloop
  endfacet
  facet normal 0 -1 0
    outer loop
      vertex 25.25 -15.75 25.6
      vertex -25.25 -15.75 25.6
      vertex 25.25 -15.75 0
    endloop
  endfacet
  facet normal 0 0 -1
    outer loop
      vertex -25.25 -15.75 0
      vertex -25.25 15.75 0
      vertex 25.25 -15.75 0
    endloop
  endfacet
  facet normal 0 0 -1
    outer loop
      vertex 25.25 -15.75 0
      vertex -25.25 15.75 0
      vertex 25.25 15.75 0
    endloop
  endfacet
  facet normal 0 1 0
    outer loop
      vertex -6.9 15.75 4.97967
      vertex -25.25 15.75 25.6
      vertex 25.25 15.75 0
    endloop
  endfacet
  facet normal 0 1 0
    outer loop
      vertex 25.25 15.75 0
      vertex -25.25 15.75 25.6
      vertex 25.25 15.75 25.6
    endloop
  endfacet
  facet normal 0 1 0
    outer loop
      vertex -25.25 15.75 0
      vertex -25.25 15.75 25.6
      vertex -14.9 15.75 4.97967
    endloop
  endfacet
  facet normal 0 1 0
    outer loop
      vertex -25.25 15.75 0
      vertex -14.9 15.75 4.97967
      vertex -14.9 15.75 3.1971
    endloop
  endfacet
  facet normal 0 1 0
    outer loop
      vertex -25.25 15.75 0
      vertex -14.9 15.75 3.1971
      vertex -14.2029 15.75 2.5
    endloop
  endfacet
  facet normal 0 1 0
    outer loop
      vertex -25.25 15.75 0
      vertex -14.2029 15.75 2.5
      vertex 25.25 15.75 0
    endloop
  endfacet
  facet normal 0 1 0
    outer loop
      vertex -14.2029 15.75 2.5
      vertex -7.5971 15.75 2.5
      vertex 25.25 15.75 0
    endloop
  endfacet
  facet normal 0 1 0
    outer loop
      vertex -6.9 15.75 4.97967
      vertex 25.25 15.75 0
      vertex -6.9 15.75 3.1971
    endloop
  endfacet
  facet normal 0 1 0
    outer loop
      vertex -7.92033 15.75 6
      vertex -25.25 15.75 25.6
      vertex -6.9 15.75 4.97967
    endloop
  endfacet
  facet normal 0 1 0
    outer loop
      vertex -13.8797 15.75 6
      vertex -25.25 15.75 25.6
      vertex -7.92033 15.75 6
    endloop
  endfacet
  facet normal 0 1 0
    outer loop
      vertex -14.9 15.75 4.97967
      vertex -25.25 15.75 25.6
      vertex -13.8797 15.75 6
    endloop
  endfacet
  facet normal 0 1 0
    outer loop
      vertex -6.9 15.75 3.1971
      vertex 25.25 15.75 0
      vertex -7.5971 15.75 2.5
    endloop
  endfacet
  facet normal 0 0 1
    outer loop
      vertex 24.5 15 25.6
      vertex 25.25 15.75 25.6
      vertex -25.25 15.75 25.6
    endloop
  endfacet
  facet normal 0 0 1
    outer loop
      vertex -25.25 -15.75 25.6
      vertex -24.5 15 25.6
      vertex -25.25 15.75 25.6
    endloop
  endfacet
  facet normal 0 0 1
    outer loop
      vertex 25.25 -15.75 25.6
      vertex 25.25 15.75 25.6
      vertex 24.5 15 25.6
    endloop
  endfacet
  facet normal 0 0 1
    outer loop
      vertex 24.5 -15 25.6
      vertex -24.5 -15 25.6
      vertex 25.25 -15.75 25.6
    endloop
  endfacet
  facet normal 0 0 1
    outer loop
      vertex 25.25 -15.75 25.6
      vertex 24.5 15 25.6
      vertex 24.5 -15 25.6
    endloop
  endfacet
  facet normal 0 0 1
    outer loop
      vertex -25.25 -15.75 25.6
      vertex -24.5 -15 25.6
      vertex -24.5 15 25.6
    endloop
  endfacet
  facet normal 0 0 1
    outer loop
      vertex -25.25 -15.75 25.6
      vertex 25.25 -15.75 25.6
      vertex -24.5 -15 25.6
    endloop
  endfacet
  facet normal 0 0 1
    outer loop
      vertex -24.5 15 25.6
      vertex 24.5 15 25.6
      vertex -25.25 15.75 25.6
    endloop
  endfacet
  facet normal 1 0 0
    outer loop
      vertex 25.25 -12.85 10.5
      vertex 25.25 -15.75 0
      vertex 25.25 15.75 0
    endloop
  endfacet
  facet normal 1 0 0
    outer loop
      vertex 25.25 3.97773 9.92244
      vertex 25.25 -15.75 25.6
      vertex 25.25 15.75 0
    endloop
  endfacet
  facet normal 1 0 0
    outer loop
      vertex 25.25 -11.85 10.5
      vertex 25.25 -12.85 10.5
      vertex 25.25 15.75 0
    endloop
  endfacet
  facet normal 1 0 0
    outer loop
      vertex 25.25 -15.75 25.6
      vertex 25.25 -15.75 0
      vertex 25.25 -12.85 10.5
    endloop
  endfacet
  facet normal 1 0 0
    outer loop
      vertex 25.25 -15.75 25.6
      vertex 25.25 -12.85 10.5
      vertex 25.25 -12.85 14.5
    endloop
  endfacet
  facet normal 1 0 0
    outer loop
      vertex 25.25 -15.75 25.6
      vertex 25.25 -12.85 14.5
      vertex 25.25 -11.85 14.5
    endloop
  endfacet
  facet normal 1 0 0
    outer loop
      vertex 25.25 -6.30478 9.45957
      vertex 25.25 -11.85 10.5
      vertex 25.25 15.75 0
    endloop
  endfacet
  facet normal 1 0 0
    outer loop
      vertex 25.25 -6.30478 9.45957
      vertex 25.25 -6.88632 9.63597
      vertex 25.25 -11.85 10.5
    endloop
  endfacet
  facet normal 1 0 0
    outer loop
      vertex 25.25 -3.97773 9.92244
      vertex 25.25 -4.51368 9.63597
      vertex 25.25 15.75 0
    endloop
  endfacet
  facet normal 1 0 0
    outer loop
      vertex 25.25 -3.50797 14.692
      vertex 25.25 -3.12244 14.2223
      vertex 25.25 15.75 0
    endloop
  endfacet
  facet normal 1 0 0
    outer loop
      vertex 25.25 5.7 15.6
      vertex 25.25 6.30478 15.5404
      vertex 25.25 15.75 25.6
    endloop
  endfacet
  facet normal 1 0 0
    outer loop
      vertex 25.25 -15.75 25.6
      vertex 25.25 -11.85 14.5
      vertex 25.25 -8.74043 13.1048
    endloop
  endfacet
  facet normal 1 0 0
    outer loop
      vertex 25.25 -15.75 25.6
      vertex 25.25 -8.74043 13.1048
      vertex 25.25 -8.56403 13.6863
    endloop
  endfacet
  facet normal 1 0 0
    outer loop
      vertex 25.25 -3.12244 10.7777
      vertex 25.25 -3.50797 10.308
      vertex 25.25 15.75 0
    endloop
  endfacet
  facet normal 1 0 0
    outer loop
      vertex 25.25 -15.75 25.6
      vertex 25.25 -8.56403 13.6863
      vertex 25.25 -8.27756 14.2223
    endloop
  endfacet
  facet normal 1 0 0
    outer loop
      vertex 25.25 -2.83597 11.3137
      vertex 25.25 -3.12244 10.7777
      vertex 25.25 15.75 0
    endloop
  endfacet
  facet normal 1 0 0
    outer loop
      vertex 25.25 -15.75 25.6
      vertex 25.25 -8.27756 14.2223
      vertex 25.25 -7.89203 14.692
    endloop
  endfacet
  facet normal 1 0 0
    outer loop
      vertex 25.25 -2.65957 11.8952
      vertex 25.25 -2.83597 11.3137
      vertex 25.25 15.75 0
    endloop
  endfacet
  facet normal 1 0 0
    outer loop
      vertex 25.25 -15.75 25.6
      vertex 25.25 -7.89203 14.692
      vertex 25.25 -7.42227 15.0776
    endloop
  endfacet
  facet normal 1 0 0
    outer loop
      vertex 25.25 -3.50797 10.308
      vertex 25.25 -3.97773 9.92244
      vertex 25.25 15.75 0
    endloop
  endfacet
  facet normal 1 0 0
    outer loop
      vertex 25.25 -15.75 25.6
      vertex 25.25 -7.42227 15.0776
      vertex 25.25 -6.88632 15.364
    endloop
  endfacet
  facet normal 1 0 0
    outer loop
      vertex 25.25 -15.75 25.6
      vertex 25.25 -6.88632 15.364
      vertex 25.25 -6.30478 15.5404
    endloop
  endfacet
  facet normal 1 0 0
    outer loop
      vertex 25.25 -2.65957 13.1048
      vertex 25.25 -2.6 12.5
      vertex 25.25 15.75 0
    endloop
  endfacet
  facet normal 1 0 0
    outer loop
      vertex 25.25 -15.75 25.6
      vertex 25.25 -6.30478 15.5404
      vertex 25.25 -5.7 15.6
    endloop
  endfacet
  facet normal 1 0 0
    outer loop
      vertex 25.25 -2.83597 13.6863
      vertex 25.25 -2.65957 13.1048
      vertex 25.25 15.75 0
    endloop
  endfacet
  facet normal 1 0 0
    outer loop
      vertex 25.25 -15.75 25.6
      vertex 25.25 -5.7 15.6
      vertex 25.25 -5.09522 15.5404
    endloop
  endfacet
  facet normal 1 0 0
    outer loop
      vertex 25.25 -3.12244 14.2223
      vertex 25.25 -2.83597 13.6863
      vertex 25.25 15.75 0
    endloop
  endfacet
  facet normal 1 0 0
    outer loop
      vertex 25.25 -15.75 25.6
      vertex 25.25 -5.09522 15.5404
      vertex 25.25 -4.51368 15.364
    endloop
  endfacet
  facet normal 1 0 0
    outer loop
      vertex 25.25 -15.75 25.6
      vertex 25.25 -3.97773 15.0776
      vertex 25.25 15.75 0
    endloop
  endfacet
  facet normal 1 0 0
    outer loop
      vertex 25.25 -15.75 25.6
      vertex 25.25 -4.51368 15.364
      vertex 25.25 -3.97773 15.0776
    endloop
  endfacet
  facet normal 1 0 0
    outer loop
      vertex 25.25 -3.97773 15.0776
      vertex 25.25 -3.50797 14.692
      vertex 25.25 15.75 0
    endloop
  endfacet
  facet normal 1 0 0
    outer loop
      vertex 25.25 -2.6 12.5
      vertex 25.25 -2.65957 11.8952
      vertex 25.25 15.75 0
    endloop
  endfacet
  facet normal 1 0 0
    outer loop
      vertex 25.25 -8.8 12.5
      vertex 25.25 -8.74043 13.1048
      vertex 25.25 -11.85 14.5
    endloop
  endfacet
  facet normal 1 0 0
    outer loop
      vertex 25.25 -4.51368 9.63597
      vertex 25.25 -5.09522 9.45957
      vertex 25.25 15.75 0
    endloop
  endfacet
  facet normal 1 0 0
    outer loop
      vertex 25.25 -5.09522 9.45957
      vertex 25.25 -5.7 9.4
      vertex 25.25 15.75 0
    endloop
  endfacet
  facet normal 1 0 0
    outer loop
      vertex 25.25 -5.7 9.4
      vertex 25.25 -6.30478 9.45957
      vertex 25.25 15.75 0
    endloop
  endfacet
  facet normal 1 0 0
    outer loop
      vertex 25.25 -6.88632 9.63597
      vertex 25.25 -7.42227 9.92244
      vertex 25.25 -11.85 10.5
    endloop
  endfacet
  facet normal 1 0 0
    outer loop
      vertex 25.25 -7.42227 9.92244
      vertex 25.25 -7.89203 10.308
      vertex 25.25 -11.85 10.5
    endloop
  endfacet
  facet normal 1 0 0
    outer loop
      vertex 25.25 3.97773 15.0776
      vertex 25.25 4.51368 15.364
      vertex 25.25 15.75 25.6
    endloop
  endfacet
  facet normal 1 0 0
    outer loop
      vertex 25.25 -8.27756 10.7777
      vertex 25.25 -11.85 10.5
      vertex 25.25 -7.89203 10.308
    endloop
  endfacet
  facet normal 1 0 0
    outer loop
      vertex 25.25 -8.56403 11.3137
      vertex 25.25 -11.85 10.5
      vertex 25.25 -8.27756 10.7777
    endloop
  endfacet
  facet normal 1 0 0
    outer loop
      vertex 25.25 -8.74043 11.8952
      vertex 25.25 -11.85 10.5
      vertex 25.25 -8.56403 11.3137
    endloop
  endfacet
  facet normal 1 0 0
    outer loop
      vertex 25.25 3.50797 10.308
      vertex 25.25 3.12244 10.7777
      vertex 25.25 -15.75 25.6
    endloop
  endfacet
  facet normal 1 0 0
    outer loop
      vertex 25.25 2.6 12.5
      vertex 25.25 -15.75 25.6
      vertex 25.25 2.65957 11.8952
    endloop
  endfacet
  facet normal 1 0 0
    outer loop
      vertex 25.25 2.65957 13.1048
      vertex 25.25 -15.75 25.6
      vertex 25.25 2.6 12.5
    endloop
  endfacet
  facet normal 1 0 0
    outer loop
      vertex 25.25 2.83597 13.6863
      vertex 25.25 -15.75 25.6
      vertex 25.25 2.65957 13.1048
    endloop
  endfacet
  facet normal 1 0 0
    outer loop
      vertex 25.25 3.12244 14.2223
      vertex 25.25 -15.75 25.6
      vertex 25.25 2.83597 13.6863
    endloop
  endfacet
  facet normal 1 0 0
    outer loop
      vertex 25.25 3.50797 14.692
      vertex 25.25 -15.75 25.6
      vertex 25.25 3.12244 14.2223
    endloop
  endfacet
  facet normal 1 0 0
    outer loop
      vertex 25.25 15.75 25.6
      vertex 25.25 -15.75 25.6
      vertex 25.25 3.50797 14.692
    endloop
  endfacet
  facet normal 1 0 0
    outer loop
      vertex 25.25 4.51368 15.364
      vertex 25.25 5.09522 15.5404
      vertex 25.25 15.75 25.6
    endloop
  endfacet
  facet normal 1 0 0
    outer loop
      vertex 25.25 15.75 25.6
      vertex 25.25 3.50797 14.692
      vertex 25.25 3.97773 15.0776
    endloop
  endfacet
  facet normal 1 0 0
    outer loop
      vertex 25.25 5.09522 15.5404
      vertex 25.25 5.7 15.6
      vertex 25.25 15.75 25.6
    endloop
  endfacet
  facet normal 1 0 0
    outer loop
      vertex 25.25 8.56403 13.6863
      vertex 25.25 8.74043 13.1048
      vertex 25.25 15.75 0
    endloop
  endfacet
  facet normal 1 0 0
    outer loop
      vertex 25.25 5.7 9.4
      vertex 25.25 5.09522 9.45957
      vertex 25.25 15.75 0
    endloop
  endfacet
  facet normal 1 0 0
    outer loop
      vertex 25.25 8.74043 11.8952
      vertex 25.25 8.56403 11.3137
      vertex 25.25 15.75 0
    endloop
  endfacet
  facet normal 1 0 0
    outer loop
      vertex 25.25 15.75 25.6
      vertex 25.25 6.30478 15.5404
      vertex 25.25 6.88632 15.364
    endloop
  endfacet
  facet normal 1 0 0
    outer loop
      vertex 25.25 8.8 12.5
      vertex 25.25 8.74043 11.8952
      vertex 25.25 15.75 0
    endloop
  endfacet
  facet normal 1 0 0
    outer loop
      vertex 25.25 15.75 25.6
      vertex 25.25 6.88632 15.364
      vertex 25.25 7.42227 15.0776
    endloop
  endfacet
  facet normal 1 0 0
    outer loop
      vertex 25.25 8.74043 13.1048
      vertex 25.25 8.8 12.5
      vertex 25.25 15.75 0
    endloop
  endfacet
  facet normal 1 0 0
    outer loop
      vertex 25.25 15.75 25.6
      vertex 25.25 7.42227 15.0776
      vertex 25.25 7.89203 14.692
    endloop
  endfacet
  facet normal 1 0 0
    outer loop
      vertex 25.25 10.687 13.611
      vertex 25.25 10.936 13.914
      vertex 25.25 15.75 25.6
    endloop
  endfacet
  facet normal 1 0 0
    outer loop
      vertex 25.25 15.75 25.6
      vertex 25.25 7.89203 14.692
      vertex 25.25 8.27756 14.2223
    endloop
  endfacet
  facet normal 1 0 0
    outer loop
      vertex 25.25 10.687 11.389
      vertex 25.25 8.56403 13.6863
      vertex 25.25 15.75 0
    endloop
  endfacet
  facet normal 1 0 0
    outer loop
      vertex 25.25 15.75 25.6
      vertex 25.25 8.27756 14.2223
      vertex 25.25 8.56403 13.6863
    endloop
  endfacet
  facet normal 1 0 0
    outer loop
      vertex 25.25 8.56403 11.3137
      vertex 25.25 8.27756 10.7777
      vertex 25.25 15.75 0
    endloop
  endfacet
  facet normal 1 0 0
    outer loop
      vertex 25.25 8.27756 10.7777
      vertex 25.25 7.89203 10.308
      vertex 25.25 15.75 0
    endloop
  endfacet
  facet normal 1 0 0
    outer loop
      vertex 25.25 7.89203 10.308
      vertex 25.25 7.42227 9.92244
      vertex 25.25 15.75 0
    endloop
  endfacet
  facet normal 1 0 0
    outer loop
      vertex 25.25 7.42227 9.92244
      vertex 25.25 6.88632 9.63597
      vertex 25.25 15.75 0
    endloop
  endfacet
  facet normal 1 0 0
    outer loop
      vertex 25.25 6.88632 9.63597
      vertex 25.25 6.30478 9.45957
      vertex 25.25 15.75 0
    endloop
  endfacet
  facet normal 1 0 0
    outer loop
      vertex 25.25 6.30478 9.45957
      vertex 25.25 5.7 9.4
      vertex 25.25 15.75 0
    endloop
  endfacet
  facet normal 1 0 0
    outer loop
      vertex 25.25 5.09522 9.45957
      vertex 25.25 4.51368 9.63597
      vertex 25.25 15.75 0
    endloop
  endfacet
  facet normal 1 0 0
    outer loop
      vertex 25.25 4.51368 9.63597
      vertex 25.25 3.97773 9.92244
      vertex 25.25 15.75 0
    endloop
  endfacet
  facet normal 1 0 0
    outer loop
      vertex 25.25 3.50797 10.308
      vertex 25.25 -15.75 25.6
      vertex 25.25 3.97773 9.92244
    endloop
  endfacet
  facet normal 1 0 0
    outer loop
      vertex 25.25 3.12244 10.7777
      vertex 25.25 2.83597 11.3137
      vertex 25.25 -15.75 25.6
    endloop
  endfacet
  facet normal 1 0 0
    outer loop
      vertex 25.25 2.65957 11.8952
      vertex 25.25 -15.75 25.6
      vertex 25.25 2.83597 11.3137
    endloop
  endfacet
  facet normal 1 0 0
    outer loop
      vertex 25.25 10.35 12.5
      vertex 25.25 8.56403 13.6863
      vertex 25.25 10.388 12.11
    endloop
  endfacet
  facet normal 1 0 0
    outer loop
      vertex 25.25 10.388 12.89
      vertex 25.25 8.56403 13.6863
      vertex 25.25 10.35 12.5
    endloop
  endfacet
  facet normal 1 0 0
    outer loop
      vertex 25.25 10.936 13.914
      vertex 25.25 11.239 14.163
      vertex 25.25 15.75 25.6
    endloop
  endfacet
  facet normal 1 0 0
    outer loop
      vertex 25.25 10.502 13.265
      vertex 25.25 8.56403 13.6863
      vertex 25.25 10.388 12.89
    endloop
  endfacet
  facet normal 1 0 0
    outer loop
      vertex 25.25 15.75 25.6
      vertex 25.25 8.56403 13.6863
      vertex 25.25 10.502 13.265
    endloop
  endfacet
  facet normal 1 0 0
    outer loop
      vertex 25.25 13.764 11.086
      vertex 25.25 13.461 10.837
      vertex 25.25 15.75 0
    endloop
  endfacet
  facet normal 1 0 0
    outer loop
      vertex 25.25 15.75 25.6
      vertex 25.25 10.502 13.265
      vertex 25.25 10.687 13.611
    endloop
  endfacet
  facet normal 1 0 0
    outer loop
      vertex 25.25 14.35 12.5
      vertex 25.25 14.312 12.11
      vertex 25.25 15.75 0
    endloop
  endfacet
  facet normal 1 0 0
    outer loop
      vertex 25.25 10.936 11.086
      vertex 25.25 10.687 11.389
      vertex 25.25 15.75 0
    endloop
  endfacet
  facet normal 1 0 0
    outer loop
      vertex 25.25 15.75 25.6
      vertex 25.25 11.239 14.163
      vertex 25.25 11.585 14.348
    endloop
  endfacet
  facet normal 1 0 0
    outer loop
      vertex 25.25 15.75 25.6
      vertex 25.25 11.585 14.348
      vertex 25.25 11.96 14.462
    endloop
  endfacet
  facet normal 1 0 0
    outer loop
      vertex 25.25 13.115 10.652
      vertex 25.25 12.74 10.538
      vertex 25.25 15.75 0
    endloop
  endfacet
  facet normal 1 0 0
    outer loop
      vertex 25.25 15.75 25.6
      vertex 25.25 11.96 14.462
      vertex 25.25 12.35 14.5
    endloop
  endfacet
  facet normal 1 0 0
    outer loop
      vertex 25.25 13.461 10.837
      vertex 25.25 13.115 10.652
      vertex 25.25 15.75 0
    endloop
  endfacet
  facet normal 1 0 0
    outer loop
      vertex 25.25 15.75 25.6
      vertex 25.25 12.35 14.5
      vertex 25.25 12.74 14.462
    endloop
  endfacet
  facet normal 1 0 0
    outer loop
      vertex 25.25 12.74 10.538
      vertex 25.25 12.35 10.5
      vertex 25.25 15.75 0
    endloop
  endfacet
  facet normal 1 0 0
    outer loop
      vertex 25.25 15.75 25.6
      vertex 25.25 12.74 14.462
      vertex 25.25 13.115 14.348
    endloop
  endfacet
  facet normal 1 0 0
    outer loop
      vertex 25.25 15.75 25.6
      vertex 25.25 13.115 14.348
      vertex 25.25 13.461 14.163
    endloop
  endfacet
  facet normal 1 0 0
    outer loop
      vertex 25.25 14.013 11.389
      vertex 25.25 13.764 11.086
      vertex 25.25 15.75 0
    endloop
  endfacet
  facet normal 1 0 0
    outer loop
      vertex 25.25 15.75 25.6
      vertex 25.25 13.461 14.163
      vertex 25.25 13.764 13.914
    endloop
  endfacet
  facet normal 1 0 0
    outer loop
      vertex 25.25 14.198 11.735
      vertex 25.25 14.013 11.389
      vertex 25.25 15.75 0
    endloop
  endfacet
  facet normal 1 0 0
    outer loop
      vertex 25.25 15.75 25.6
      vertex 25.25 13.764 13.914
      vertex 25.25 14.013 13.611
    endloop
  endfacet
  facet normal 1 0 0
    outer loop
      vertex 25.25 14.312 12.11
      vertex 25.25 14.198 11.735
      vertex 25.25 15.75 0
    endloop
  endfacet
  facet normal 1 0 0
    outer loop
      vertex 25.25 15.75 25.6
      vertex 25.25 14.013 13.611
      vertex 25.25 14.198 13.265
    endloop
  endfacet
  facet normal 1 0 0
    outer loop
      vertex 25.25 15.75 25.6
      vertex 25.25 14.312 12.89
      vertex 25.25 15.75 0
    endloop
  endfacet
  facet normal 1 0 0
    outer loop
      vertex 25.25 15.75 25.6
      vertex 25.25 14.198 13.265
      vertex 25.25 14.312 12.89
    endloop
  endfacet
  facet normal 1 0 0
    outer loop
      vertex 25.25 14.312 12.89
      vertex 25.25 14.35 12.5
      vertex 25.25 15.75 0
    endloop
  endfacet
  facet normal 1 0 0
    outer loop
      vertex 25.25 12.35 10.5
      vertex 25.25 11.96 10.538
      vertex 25.25 15.75 0
    endloop
  endfacet
  facet normal 1 0 0
    outer loop
      vertex 25.25 11.96 10.538
      vertex 25.25 11.585 10.652
      vertex 25.25 15.75 0
    endloop
  endfacet
  facet normal 1 0 0
    outer loop
      vertex 25.25 11.585 10.652
      vertex 25.25 11.239 10.837
      vertex 25.25 15.75 0
    endloop
  endfacet
  facet normal 1 0 0
    outer loop
      vertex 25.25 11.239 10.837
      vertex 25.25 10.936 11.086
      vertex 25.25 15.75 0
    endloop
  endfacet
  facet normal 1 0 0
    outer loop
      vertex 25.25 10.502 11.735
      vertex 25.25 8.56403 13.6863
      vertex 25.25 10.687 11.389
    endloop
  endfacet
  facet normal 1 0 0
    outer loop
      vertex 25.25 10.388 12.11
      vertex 25.25 8.56403 13.6863
      vertex 25.25 10.502 11.735
    endloop
  endfacet
  facet normal 1 0 0
    outer loop
      vertex 25.25 -11.85 14.5
      vertex 25.25 -8.74043 11.8952
      vertex 25.25 -8.8 12.5
    endloop
  endfacet
  facet normal 1 0 0
    outer loop
      vertex 25.25 -11.85 14.5
      vertex 25.25 -11.85 10.5
      vertex 25.25 -8.74043 11.8952
    endloop
  endfacet
  facet normal 1 0 0
    outer loop
      vertex -14.9 15.75 3.1971
      vertex -14.9 15.75 4.97967
      vertex -14.9 14.25 4.97967
    endloop
  endfacet
  facet normal 1 0 0
    outer loop
      vertex -14.9 14.25 3.1971
      vertex -14.9 15.75 3.1971
      vertex -14.9 14.25 4.97967
    endloop
  endfacet
  facet normal 0.707107 0 -0.707107
    outer loop
      vertex -13.8797 14.25 6
      vertex -14.9 14.25 4.97967
      vertex -14.9 15.75 4.97967
    endloop
  endfacet
  facet normal 0.707107 0 -0.707107
    outer loop
      vertex -13.8797 15.75 6
      vertex -13.8797 14.25 6
      vertex -14.9 15.75 4.97967
    endloop
  endfacet
  facet normal 0 0 -1
    outer loop
      vertex -7.92033 15.75 6
      vertex -7.92033 14.25 6
      vertex -13.8797 15.75 6
    endloop
  endfacet
  facet normal 0 0 -1
    outer loop
      vertex -13.8797 15.75 6
      vertex -7.92033 14.25 6
      vertex -13.8797 14.25 6
    endloop
  endfacet
  facet normal -0.707107 0 -0.707107
    outer loop
      vertex -7.92033 14.25 6
      vertex -7.92033 15.75 6
      vertex -6.9 14.25 4.97967
    endloop
  endfacet
  facet normal -0.707107 0 -0.707107
    outer loop
      vertex -6.9 14.25 4.97967
      vertex -7.92033 15.75 6
      vertex -6.9 15.75 4.97967
    endloop
  endfacet
  facet normal -1 0 0
    outer loop
      vertex -6.9 15.75 4.97967
      vertex -6.9 15.75 3.1971
      vertex -6.9 14.25 4.97967
    endloop
  endfacet
  facet normal -1 0 0
    outer loop
      vertex -6.9 14.25 4.97967
      vertex -6.9 15.75 3.1971
      vertex -6.9 14.25 3.1971
    endloop
  endfacet
  facet normal -0.707107 0 0.707107
    outer loop
      vertex -7.5971 14.25 2.5
      vertex -6.9 14.25 3.1971
      vertex -7.5971 15.75 2.5
    endloop
  endfacet
  facet normal -0.707107 0 0.707107
    outer loop
      vertex -7.5971 15.75 2.5
      vertex -6.9 14.25 3.1971
      vertex -6.9 15.75 3.1971
    endloop
  endfacet
  facet normal 0 0 1
    outer loop
      vertex -7.5971 14.25 2.5
      vertex -7.5971 15.75 2.5
      vertex -14.2029 15.75 2.5
    endloop
  endfacet
  facet normal 0 0 1
    outer loop
      vertex -14.2029 14.25 2.5
      vertex -7.5971 14.25 2.5
      vertex -14.2029 15.75 2.5
    endloop
  endfacet
  facet normal 0.707107 0 0.707107
    outer loop
      vertex -14.9 15.75 3.1971
      vertex -14.9 14.25 3.1971
      vertex -14.2029 14.25 2.5
    endloop
  endfacet
  facet normal 0.707107 0 0.707107
    outer loop
      vertex -14.2029 15.75 2.5
      vertex -14.9 15.75 3.1971
      vertex -14.2029 14.25 2.5
    endloop
  endfacet
  facet normal 1 0 0
    outer loop
      vertex -24.5 15 23.5
      vertex -24.5 15 25.6
      vertex -24.5 -15 25.6
    endloop
  endfacet
  facet normal 1 0 0
    outer loop
      vertex -24.5 -15 23.5
      vertex -24.5 15 23.5
      vertex -24.5 -15 25.6
    endloop
  endfacet
  facet normal 0 -1 0
    outer loop
      vertex 24.5 15 23.5
      vertex 24.5 15 25.6
      vertex -24.5 15 25.6
    endloop
  endfacet
  facet normal 0 -1 0
    outer loop
      vertex -24.5 15 23.5
      vertex 24.5 15 23.5
      vertex -24.5 15 25.6
    endloop
  endfacet
  facet normal 0 1 0
    outer loop
      vertex 24.5 -15 25.6
      vertex 24.5 -15 23.5
      vertex -24.5 -15 25.6
    endloop
  endfacet
  facet normal 0 1 0
    outer loop
      vertex -24.5 -15 25.6
      vertex 24.5 -15 23.5
      vertex -24.5 -15 23.5
    endloop
  endfacet
  facet normal -1 0 0
    outer loop
      vertex 24.5 15 25.6
      vertex 24.5 15 23.5
      vertex 24.5 -15 25.6
    endloop
  endfacet
  facet normal -1 0 0
    outer loop
      vertex 24.5 -15 25.6
      vertex 24.5 15 23.5
      vertex 24.5 -15 23.5
    endloop
  endfacet
  facet normal 0 0 1
    outer loop
      vertex 25.25 -12.85 10.5
      vertex 25.25 -11.85 10.5
      vertex 24.75 -11.85 10.5
    endloop
  endfacet
  facet normal 0 0 1
    outer loop
      vertex 24.75 -12.85 10.5
      vertex 25.25 -12.85 10.5
      vertex 24.75 -11.85 10.5
    endloop
  endfacet
  facet normal 0 1 0
    outer loop
      vertex 25.25 -12.85 14.5
      vertex 25.25 -12.85 10.5
      vertex 24.75 -12.85 14.5
    endloop
  endfacet
  facet normal 0 1 0
    outer loop
      vertex 24.75 -12.85 14.5
      vertex 25.25 -12.85 10.5
      vertex 24.75 -12.85 10.5
    endloop
  endfacet
  facet normal 0 -1 0
    outer loop
      vertex 25.25 -11.85 10.5
      vertex 25.25 -11.85 14.5
      vertex 24.75 -11.85 14.5
    endloop
  endfacet
  facet normal 0 -1 0
    outer loop
      vertex 24.75 -11.85 10.5
      vertex 25.25 -11.85 10.5
      vertex 24.75 -11.85 14.5
    endloop
  endfacet
  facet normal 0 0 -1
    outer loop
      vertex 25.25 -11.85 14.5
      vertex 25.25 -12.85 14.5
      vertex 24.75 -11.85 14.5
    endloop
  endfacet
  facet normal 0 0 -1
    outer loop
      vertex 24.75 -11.85 14.5
      vertex 25.25 -12.85 14.5
      vertex 24.75 -12.85 14.5
    endloop
  endfacet
  facet normal -2.17643e-17 0.995185 0.0980177
    outer loop
      vertex 25.25 -8.74043 11.8952
      vertex 23.75 -8.74043 11.8952
      vertex 25.25 -8.8 12.5
    endloop
  endfacet
  facet normal -2.17643e-17 0.995185 0.0980177
    outer loop
      vertex 25.25 -8.8 12.5
      vertex 23.75 -8.74043 11.8952
      vertex 23.75 -8.8 12.5
    endloop
  endfacet
  facet normal -6.44558e-17 0.956941 0.290283
    outer loop
      vertex 25.25 -8.56403 11.3137
      vertex 23.75 -8.56403 11.3137
      vertex 25.25 -8.74043 11.8952
    endloop
  endfacet
  facet normal -6.44558e-17 0.956941 0.290283
    outer loop
      vertex 25.25 -8.74043 11.8952
      vertex 23.75 -8.56403 11.3137
      vertex 23.75 -8.74043 11.8952
    endloop
  endfacet
  facet normal -1.04671e-16 0.881921 0.471397
    outer loop
      vertex 25.25 -8.27756 10.7777
      vertex 23.75 -8.27756 10.7777
      vertex 25.25 -8.56403 11.3137
    endloop
  endfacet
  facet normal -1.04671e-16 0.881921 0.471397
    outer loop
      vertex 25.25 -8.56403 11.3137
      vertex 23.75 -8.27756 10.7777
      vertex 23.75 -8.56403 11.3137
    endloop
  endfacet
  facet normal -1.40864e-16 0.77301 0.634394
    outer loop
      vertex 25.25 -7.89203 10.308
      vertex 23.75 -7.89203 10.308
      vertex 25.25 -8.27756 10.7777
    endloop
  endfacet
  facet normal -1.40864e-16 0.77301 0.634394
    outer loop
      vertex 25.25 -8.27756 10.7777
      vertex 23.75 -7.89203 10.308
      vertex 23.75 -8.27756 10.7777
    endloop
  endfacet
  facet normal -1.71643e-16 0.634394 0.77301
    outer loop
      vertex 25.25 -7.89203 10.308
      vertex 25.25 -7.42227 9.92244
      vertex 23.75 -7.42227 9.92244
    endloop
  endfacet
  facet normal -1.71643e-16 0.634394 0.77301
    outer loop
      vertex 23.75 -7.89203 10.308
      vertex 25.25 -7.89203 10.308
      vertex 23.75 -7.42227 9.92244
    endloop
  endfacet
  facet normal -1.95826e-16 0.471397 0.881921
    outer loop
      vertex 25.25 -7.42227 9.92244
      vertex 25.25 -6.88632 9.63597
      vertex 23.75 -6.88632 9.63597
    endloop
  endfacet
  facet normal -1.95826e-16 0.471397 0.881921
    outer loop
      vertex 23.75 -7.42227 9.92244
      vertex 25.25 -7.42227 9.92244
      vertex 23.75 -6.88632 9.63597
    endloop
  endfacet
  facet normal -2.12484e-16 0.290283 0.956941
    outer loop
      vertex 25.25 -6.88632 9.63597
      vertex 25.25 -6.30478 9.45957
      vertex 23.75 -6.30478 9.45957
    endloop
  endfacet
  facet normal -2.12484e-16 0.290283 0.956941
    outer loop
      vertex 23.75 -6.88632 9.63597
      vertex 25.25 -6.88632 9.63597
      vertex 23.75 -6.30478 9.45957
    endloop
  endfacet
  facet normal -2.20975e-16 0.0980177 0.995185
    outer loop
      vertex 25.25 -6.30478 9.45957
      vertex 25.25 -5.7 9.4
      vertex 23.75 -5.7 9.4
    endloop
  endfacet
  facet normal -2.20975e-16 0.0980177 0.995185
    outer loop
      vertex 23.75 -6.30478 9.45957
      vertex 25.25 -6.30478 9.45957
      vertex 23.75 -5.7 9.4
    endloop
  endfacet
  facet normal -2.20975e-16 -0.0980177 0.995185
    outer loop
      vertex 25.25 -5.7 9.4
      vertex 25.25 -5.09522 9.45957
      vertex 23.75 -5.09522 9.45957
    endloop
  endfacet
  facet normal -2.20975e-16 -0.0980177 0.995185
    outer loop
      vertex 23.75 -5.7 9.4
      vertex 25.25 -5.7 9.4
      vertex 23.75 -5.09522 9.45957
    endloop
  endfacet
  facet normal -2.12484e-16 -0.290283 0.956941
    outer loop
      vertex 25.25 -5.09522 9.45957
      vertex 25.25 -4.51368 9.63597
      vertex 23.75 -4.51368 9.63597
    endloop
  endfacet
  facet normal -2.12484e-16 -0.290283 0.956941
    outer loop
      vertex 23.75 -5.09522 9.45957
      vertex 25.25 -5.09522 9.45957
      vertex 23.75 -4.51368 9.63597
    endloop
  endfacet
  facet normal -1.95826e-16 -0.471397 0.881921
    outer loop
      vertex 25.25 -4.51368 9.63597
      vertex 25.25 -3.97773 9.92244
      vertex 23.75 -3.97773 9.92244
    endloop
  endfacet
  facet normal -1.95826e-16 -0.471397 0.881921
    outer loop
      vertex 23.75 -4.51368 9.63597
      vertex 25.25 -4.51368 9.63597
      vertex 23.75 -3.97773 9.92244
    endloop
  endfacet
  facet normal -1.71643e-16 -0.634394 0.77301
    outer loop
      vertex 25.25 -3.97773 9.92244
      vertex 25.25 -3.50797 10.308
      vertex 23.75 -3.50797 10.308
    endloop
  endfacet
  facet normal -1.71643e-16 -0.634394 0.77301
    outer loop
      vertex 23.75 -3.97773 9.92244
      vertex 25.25 -3.97773 9.92244
      vertex 23.75 -3.50797 10.308
    endloop
  endfacet
  facet normal -1.40864e-16 -0.77301 0.634394
    outer loop
      vertex 25.25 -3.50797 10.308
      vertex 25.25 -3.12244 10.7777
      vertex 23.75 -3.12244 10.7777
    endloop
  endfacet
  facet normal -1.40864e-16 -0.77301 0.634394
    outer loop
      vertex 23.75 -3.50797 10.308
      vertex 25.25 -3.50797 10.308
      vertex 23.75 -3.12244 10.7777
    endloop
  endfacet
  facet normal -1.04671e-16 -0.881921 0.471397
    outer loop
      vertex 25.25 -3.12244 10.7777
      vertex 25.25 -2.83597 11.3137
      vertex 23.75 -2.83597 11.3137
    endloop
  endfacet
  facet normal -1.04671e-16 -0.881921 0.471397
    outer loop
      vertex 23.75 -3.12244 10.7777
      vertex 25.25 -3.12244 10.7777
      vertex 23.75 -2.83597 11.3137
    endloop
  endfacet
  facet normal -6.44558e-17 -0.956941 0.290283
    outer loop
      vertex 25.25 -2.83597 11.3137
      vertex 25.25 -2.65957 11.8952
      vertex 23.75 -2.65957 11.8952
    endloop
  endfacet
  facet normal -6.44558e-17 -0.956941 0.290283
    outer loop
      vertex 23.75 -2.83597 11.3137
      vertex 25.25 -2.83597 11.3137
      vertex 23.75 -2.65957 11.8952
    endloop
  endfacet
  facet normal -2.17643e-17 -0.995185 0.0980177
    outer loop
      vertex 25.25 -2.65957 11.8952
      vertex 25.25 -2.6 12.5
      vertex 23.75 -2.6 12.5
    endloop
  endfacet
  facet normal -2.17643e-17 -0.995185 0.0980177
    outer loop
      vertex 23.75 -2.65957 11.8952
      vertex 25.25 -2.65957 11.8952
      vertex 23.75 -2.6 12.5
    endloop
  endfacet
  facet normal 2.17643e-17 -0.995185 -0.0980177
    outer loop
      vertex 23.75 -2.6 12.5
      vertex 25.25 -2.6 12.5
      vertex 25.25 -2.65957 13.1048
    endloop
  endfacet
  facet normal 2.17643e-17 -0.995185 -0.0980177
    outer loop
      vertex 23.75 -2.65957 13.1048
      vertex 23.75 -2.6 12.5
      vertex 25.25 -2.65957 13.1048
    endloop
  endfacet
  facet normal 6.44558e-17 -0.956941 -0.290283
    outer loop
      vertex 23.75 -2.65957 13.1048
      vertex 25.25 -2.65957 13.1048
      vertex 25.25 -2.83597 13.6863
    endloop
  endfacet
  facet normal 6.44558e-17 -0.956941 -0.290283
    outer loop
      vertex 23.75 -2.83597 13.6863
      vertex 23.75 -2.65957 13.1048
      vertex 25.25 -2.83597 13.6863
    endloop
  endfacet
  facet normal 1.04671e-16 -0.881921 -0.471397
    outer loop
      vertex 23.75 -2.83597 13.6863
      vertex 25.25 -2.83597 13.6863
      vertex 25.25 -3.12244 14.2223
    endloop
  endfacet
  facet normal 1.04671e-16 -0.881921 -0.471397
    outer loop
      vertex 23.75 -3.12244 14.2223
      vertex 23.75 -2.83597 13.6863
      vertex 25.25 -3.12244 14.2223
    endloop
  endfacet
  facet normal 1.40864e-16 -0.77301 -0.634394
    outer loop
      vertex 23.75 -3.12244 14.2223
      vertex 25.25 -3.12244 14.2223
      vertex 25.25 -3.50797 14.692
    endloop
  endfacet
  facet normal 1.40864e-16 -0.77301 -0.634394
    outer loop
      vertex 23.75 -3.50797 14.692
      vertex 23.75 -3.12244 14.2223
      vertex 25.25 -3.50797 14.692
    endloop
  endfacet
  facet normal 1.71643e-16 -0.634394 -0.77301
    outer loop
      vertex 25.25 -3.50797 14.692
      vertex 25.25 -3.97773 15.0776
      vertex 23.75 -3.50797 14.692
    endloop
  endfacet
  facet normal 1.71643e-16 -0.634394 -0.77301
    outer loop
      vertex 23.75 -3.50797 14.692
      vertex 25.25 -3.97773 15.0776
      vertex 23.75 -3.97773 15.0776
    endloop
  endfacet
  facet normal 1.95826e-16 -0.471397 -0.881921
    outer loop
      vertex 25.25 -3.97773 15.0776
      vertex 25.25 -4.51368 15.364
      vertex 23.75 -3.97773 15.0776
    endloop
  endfacet
  facet normal 1.95826e-16 -0.471397 -0.881921
    outer loop
      vertex 23.75 -3.97773 15.0776
      vertex 25.25 -4.51368 15.364
      vertex 23.75 -4.51368 15.364
    endloop
  endfacet
  facet normal 2.12484e-16 -0.290283 -0.956941
    outer loop
      vertex 25.25 -4.51368 15.364
      vertex 25.25 -5.09522 15.5404
      vertex 23.75 -4.51368 15.364
    endloop
  endfacet
  facet normal 2.12484e-16 -0.290283 -0.956941
    outer loop
      vertex 23.75 -4.51368 15.364
      vertex 25.25 -5.09522 15.5404
      vertex 23.75 -5.09522 15.5404
    endloop
  endfacet
  facet normal 2.20975e-16 -0.0980177 -0.995185
    outer loop
      vertex 25.25 -5.09522 15.5404
      vertex 25.25 -5.7 15.6
      vertex 23.75 -5.09522 15.5404
    endloop
  endfacet
  facet normal 2.20975e-16 -0.0980177 -0.995185
    outer loop
      vertex 23.75 -5.09522 15.5404
      vertex 25.25 -5.7 15.6
      vertex 23.75 -5.7 15.6
    endloop
  endfacet
  facet normal 2.20975e-16 0.0980177 -0.995185
    outer loop
      vertex 25.25 -5.7 15.6
      vertex 25.25 -6.30478 15.5404
      vertex 23.75 -5.7 15.6
    endloop
  endfacet
  facet normal 2.20975e-16 0.0980177 -0.995185
    outer loop
      vertex 23.75 -5.7 15.6
      vertex 25.25 -6.30478 15.5404
      vertex 23.75 -6.30478 15.5404
    endloop
  endfacet
  facet normal 2.12484e-16 0.290283 -0.956941
    outer loop
      vertex 25.25 -6.30478 15.5404
      vertex 25.25 -6.88632 15.364
      vertex 23.75 -6.30478 15.5404
    endloop
  endfacet
  facet normal 2.12484e-16 0.290283 -0.956941
    outer loop
      vertex 23.75 -6.30478 15.5404
      vertex 25.25 -6.88632 15.364
      vertex 23.75 -6.88632 15.364
    endloop
  endfacet
  facet normal 1.95826e-16 0.471397 -0.881921
    outer loop
      vertex 25.25 -6.88632 15.364
      vertex 25.25 -7.42227 15.0776
      vertex 23.75 -6.88632 15.364
    endloop
  endfacet
  facet normal 1.95826e-16 0.471397 -0.881921
    outer loop
      vertex 23.75 -6.88632 15.364
      vertex 25.25 -7.42227 15.0776
      vertex 23.75 -7.42227 15.0776
    endloop
  endfacet
  facet normal 1.71643e-16 0.634394 -0.77301
    outer loop
      vertex 25.25 -7.42227 15.0776
      vertex 25.25 -7.89203 14.692
      vertex 23.75 -7.42227 15.0776
    endloop
  endfacet
  facet normal 1.71643e-16 0.634394 -0.77301
    outer loop
      vertex 23.75 -7.42227 15.0776
      vertex 25.25 -7.89203 14.692
      vertex 23.75 -7.89203 14.692
    endloop
  endfacet
  facet normal 1.40864e-16 0.77301 -0.634394
    outer loop
      vertex 25.25 -7.89203 14.692
      vertex 25.25 -8.27756 14.2223
      vertex 23.75 -7.89203 14.692
    endloop
  endfacet
  facet normal 1.40864e-16 0.77301 -0.634394
    outer loop
      vertex 23.75 -7.89203 14.692
      vertex 25.25 -8.27756 14.2223
      vertex 23.75 -8.27756 14.2223
    endloop
  endfacet
  facet normal 1.04671e-16 0.881921 -0.471397
    outer loop
      vertex 25.25 -8.27756 14.2223
      vertex 25.25 -8.56403 13.6863
      vertex 23.75 -8.27756 14.2223
    endloop
  endfacet
  facet normal 1.04671e-16 0.881921 -0.471397
    outer loop
      vertex 23.75 -8.27756 14.2223
      vertex 25.25 -8.56403 13.6863
      vertex 23.75 -8.56403 13.6863
    endloop
  endfacet
  facet normal 6.44558e-17 0.956941 -0.290283
    outer loop
      vertex 25.25 -8.56403 13.6863
      vertex 25.25 -8.74043 13.1048
      vertex 23.75 -8.56403 13.6863
    endloop
  endfacet
  facet normal 6.44558e-17 0.956941 -0.290283
    outer loop
      vertex 23.75 -8.56403 13.6863
      vertex 25.25 -8.74043 13.1048
      vertex 23.75 -8.74043 13.1048
    endloop
  endfacet
  facet normal 2.17643e-17 0.995185 -0.0980177
    outer loop
      vertex 25.25 -8.74043 13.1048
      vertex 25.25 -8.8 12.5
      vertex 23.75 -8.74043 13.1048
    endloop
  endfacet
  facet normal 2.17643e-17 0.995185 -0.0980177
    outer loop
      vertex 23.75 -8.74043 13.1048
      vertex 25.25 -8.8 12.5
      vertex 23.75 -8.8 12.5
    endloop
  endfacet
  facet normal -2.17643e-17 0.995185 0.0980177
    outer loop
      vertex 25.25 2.65957 11.8952
      vertex 23.75 2.65957 11.8952
      vertex 25.25 2.6 12.5
    endloop
  endfacet
  facet normal -2.17643e-17 0.995185 0.0980177
    outer loop
      vertex 25.25 2.6 12.5
      vertex 23.75 2.65957 11.8952
      vertex 23.75 2.6 12.5
    endloop
  endfacet
  facet normal -6.44558e-17 0.956941 0.290283
    outer loop
      vertex 25.25 2.83597 11.3137
      vertex 23.75 2.83597 11.3137
      vertex 25.25 2.65957 11.8952
    endloop
  endfacet
  facet normal -6.44558e-17 0.956941 0.290283
    outer loop
      vertex 25.25 2.65957 11.8952
      vertex 23.75 2.83597 11.3137
      vertex 23.75 2.65957 11.8952
    endloop
  endfacet
  facet normal -1.04671e-16 0.881921 0.471397
    outer loop
      vertex 25.25 3.12244 10.7777
      vertex 23.75 3.12244 10.7777
      vertex 25.25 2.83597 11.3137
    endloop
  endfacet
  facet normal -1.04671e-16 0.881921 0.471397
    outer loop
      vertex 25.25 2.83597 11.3137
      vertex 23.75 3.12244 10.7777
      vertex 23.75 2.83597 11.3137
    endloop
  endfacet
  facet normal -1.40864e-16 0.77301 0.634394
    outer loop
      vertex 25.25 3.50797 10.308
      vertex 23.75 3.50797 10.308
      vertex 25.25 3.12244 10.7777
    endloop
  endfacet
  facet normal -1.40864e-16 0.77301 0.634394
    outer loop
      vertex 25.25 3.12244 10.7777
      vertex 23.75 3.50797 10.308
      vertex 23.75 3.12244 10.7777
    endloop
  endfacet
  facet normal -1.71643e-16 0.634394 0.77301
    outer loop
      vertex 25.25 3.50797 10.308
      vertex 25.25 3.97773 9.92244
      vertex 23.75 3.97773 9.92244
    endloop
  endfacet
  facet normal -1.71643e-16 0.634394 0.77301
    outer loop
      vertex 23.75 3.50797 10.308
      vertex 25.25 3.50797 10.308
      vertex 23.75 3.97773 9.92244
    endloop
  endfacet
  facet normal -1.95826e-16 0.471397 0.881921
    outer loop
      vertex 25.25 3.97773 9.92244
      vertex 25.25 4.51368 9.63597
      vertex 23.75 4.51368 9.63597
    endloop
  endfacet
  facet normal -1.95826e-16 0.471397 0.881921
    outer loop
      vertex 23.75 3.97773 9.92244
      vertex 25.25 3.97773 9.92244
      vertex 23.75 4.51368 9.63597
    endloop
  endfacet
  facet normal -2.12484e-16 0.290283 0.956941
    outer loop
      vertex 25.25 4.51368 9.63597
      vertex 25.25 5.09522 9.45957
      vertex 23.75 5.09522 9.45957
    endloop
  endfacet
  facet normal -2.12484e-16 0.290283 0.956941
    outer loop
      vertex 23.75 4.51368 9.63597
      vertex 25.25 4.51368 9.63597
      vertex 23.75 5.09522 9.45957
    endloop
  endfacet
  facet normal -2.20975e-16 0.0980177 0.995185
    outer loop
      vertex 25.25 5.09522 9.45957
      vertex 25.25 5.7 9.4
      vertex 23.75 5.7 9.4
    endloop
  endfacet
  facet normal -2.20975e-16 0.0980177 0.995185
    outer loop
      vertex 23.75 5.09522 9.45957
      vertex 25.25 5.09522 9.45957
      vertex 23.75 5.7 9.4
    endloop
  endfacet
  facet normal -2.20975e-16 -0.0980177 0.995185
    outer loop
      vertex 25.25 5.7 9.4
      vertex 25.25 6.30478 9.45957
      vertex 23.75 6.30478 9.45957
    endloop
  endfacet
  facet normal -2.20975e-16 -0.0980177 0.995185
    outer loop
      vertex 23.75 5.7 9.4
      vertex 25.25 5.7 9.4
      vertex 23.75 6.30478 9.45957
    endloop
  endfacet
  facet normal -2.12484e-16 -0.290283 0.956941
    outer loop
      vertex 25.25 6.30478 9.45957
      vertex 25.25 6.88632 9.63597
      vertex 23.75 6.88632 9.63597
    endloop
  endfacet
  facet normal -2.12484e-16 -0.290283 0.956941
    outer loop
      vertex 23.75 6.30478 9.45957
      vertex 25.25 6.30478 9.45957
      vertex 23.75 6.88632 9.63597
    endloop
  endfacet
  facet normal -1.95826e-16 -0.471397 0.881921
    outer loop
      vertex 25.25 6.88632 9.63597
      vertex 25.25 7.42227 9.92244
      vertex 23.75 7.42227 9.92244
    endloop
  endfacet
  facet normal -1.95826e-16 -0.471397 0.881921
    outer loop
      vertex 23.75 6.88632 9.63597
      vertex 25.25 6.88632 9.63597
      vertex 23.75 7.42227 9.92244
    endloop
  endfacet
  facet normal -1.71643e-16 -0.634394 0.77301
    outer loop
      vertex 25.25 7.42227 9.92244
      vertex 25.25 7.89203 10.308
      vertex 23.75 7.89203 10.308
    endloop
  endfacet
  facet normal -1.71643e-16 -0.634394 0.77301
    outer loop
      vertex 23.75 7.42227 9.92244
      vertex 25.25 7.42227 9.92244
      vertex 23.75 7.89203 10.308
    endloop
  endfacet
  facet normal -1.40864e-16 -0.77301 0.634394
    outer loop
      vertex 25.25 7.89203 10.308
      vertex 25.25 8.27756 10.7777
      vertex 23.75 8.27756 10.7777
    endloop
  endfacet
  facet normal -1.40864e-16 -0.77301 0.634394
    outer loop
      vertex 23.75 7.89203 10.308
      vertex 25.25 7.89203 10.308
      vertex 23.75 8.27756 10.7777
    endloop
  endfacet
  facet normal -1.04671e-16 -0.881921 0.471397
    outer loop
      vertex 25.25 8.27756 10.7777
      vertex 25.25 8.56403 11.3137
      vertex 23.75 8.56403 11.3137
    endloop
  endfacet
  facet normal -1.04671e-16 -0.881921 0.471397
    outer loop
      vertex 23.75 8.27756 10.7777
      vertex 25.25 8.27756 10.7777
      vertex 23.75 8.56403 11.3137
    endloop
  endfacet
  facet normal -6.44558e-17 -0.956941 0.290283
    outer loop
      vertex 25.25 8.56403 11.3137
      vertex 25.25 8.74043 11.8952
      vertex 23.75 8.74043 11.8952
    endloop
  endfacet
  facet normal -6.44558e-17 -0.956941 0.290283
    outer loop
      vertex 23.75 8.56403 11.3137
      vertex 25.25 8.56403 11.3137
      vertex 23.75 8.74043 11.8952
    endloop
  endfacet
  facet normal -2.17643e-17 -0.995185 0.0980177
    outer loop
      vertex 25.25 8.74043 11.8952
      vertex 25.25 8.8 12.5
      vertex 23.75 8.8 12.5
    endloop
  endfacet
  facet normal -2.17643e-17 -0.995185 0.0980177
    outer loop
      vertex 23.75 8.74043 11.8952
      vertex 25.25 8.74043 11.8952
      vertex 23.75 8.8 12.5
    endloop
  endfacet
  facet normal 2.17643e-17 -0.995185 -0.0980177
    outer loop
      vertex 23.75 8.8 12.5
      vertex 25.25 8.8 12.5
      vertex 25.25 8.74043 13.1048
    endloop
  endfacet
  facet normal 2.17643e-17 -0.995185 -0.0980177
    outer loop
      vertex 23.75 8.74043 13.1048
      vertex 23.75 8.8 12.5
      vertex 25.25 8.74043 13.1048
    endloop
  endfacet
  facet normal 6.44558e-17 -0.956941 -0.290283
    outer loop
      vertex 23.75 8.74043 13.1048
      vertex 25.25 8.74043 13.1048
      vertex 25.25 8.56403 13.6863
    endloop
  endfacet
  facet normal 6.44558e-17 -0.956941 -0.290283
    outer loop
      vertex 23.75 8.56403 13.6863
      vertex 23.75 8.74043 13.1048
      vertex 25.25 8.56403 13.6863
    endloop
  endfacet
  facet normal 1.04671e-16 -0.881921 -0.471397
    outer loop
      vertex 23.75 8.56403 13.6863
      vertex 25.25 8.56403 13.6863
      vertex 25.25 8.27756 14.2223
    endloop
  endfacet
  facet normal 1.04671e-16 -0.881921 -0.471397
    outer loop
      vertex 23.75 8.27756 14.2223
      vertex 23.75 8.56403 13.6863
      vertex 25.25 8.27756 14.2223
    endloop
  endfacet
  facet normal 1.40864e-16 -0.77301 -0.634394
    outer loop
      vertex 23.75 8.27756 14.2223
      vertex 25.25 8.27756 14.2223
      vertex 25.25 7.89203 14.692
    endloop
  endfacet
  facet normal 1.40864e-16 -0.77301 -0.634394
    outer loop
      vertex 23.75 7.89203 14.692
      vertex 23.75 8.27756 14.2223
      vertex 25.25 7.89203 14.692
    endloop
  endfacet
  facet normal 1.71643e-16 -0.634394 -0.77301
    outer loop
      vertex 25.25 7.89203 14.692
      vertex 25.25 7.42227 15.0776
      vertex 23.75 7.89203 14.692
    endloop
  endfacet
  facet normal 1.71643e-16 -0.634394 -0.77301
    outer loop
      vertex 23.75 7.89203 14.692
      vertex 25.25 7.42227 15.0776
      vertex 23.75 7.42227 15.0776
    endloop
  endfacet
  facet normal 1.95826e-16 -0.471397 -0.881921
    outer loop
      vertex 25.25 7.42227 15.0776
      vertex 25.25 6.88632 15.364
      vertex 23.75 7.42227 15.0776
    endloop
  endfacet
  facet normal 1.95826e-16 -0.471397 -0.881921
    outer loop
      vertex 23.75 7.42227 15.0776
      vertex 25.25 6.88632 15.364
      vertex 23.75 6.88632 15.364
    endloop
  endfacet
  facet normal 2.12484e-16 -0.290283 -0.956941
    outer loop
      vertex 25.25 6.88632 15.364
      vertex 25.25 6.30478 15.5404
      vertex 23.75 6.88632 15.364
    endloop
  endfacet
  facet normal 2.12484e-16 -0.290283 -0.956941
    outer loop
      vertex 23.75 6.88632 15.364
      vertex 25.25 6.30478 15.5404
      vertex 23.75 6.30478 15.5404
    endloop
  endfacet
  facet normal 2.20975e-16 -0.0980177 -0.995185
    outer loop
      vertex 25.25 6.30478 15.5404
      vertex 25.25 5.7 15.6
      vertex 23.75 6.30478 15.5404
    endloop
  endfacet
  facet normal 2.20975e-16 -0.0980177 -0.995185
    outer loop
      vertex 23.75 6.30478 15.5404
      vertex 25.25 5.7 15.6
      vertex 23.75 5.7 15.6
    endloop
  endfacet
  facet normal 2.20975e-16 0.0980177 -0.995185
    outer loop
      vertex 25.25 5.7 15.6
      vertex 25.25 5.09522 15.5404
      vertex 23.75 5.7 15.6
    endloop
  endfacet
  facet normal 2.20975e-16 0.0980177 -0.995185
    outer loop
      vertex 23.75 5.7 15.6
      vertex 25.25 5.09522 15.5404
      vertex 23.75 5.09522 15.5404
    endloop
  endfacet
  facet normal 2.12484e-16 0.290283 -0.956941
    outer loop
      vertex 25.25 5.09522 15.5404
      vertex 25.25 4.51368 15.364
      vertex 23.75 5.09522 15.5404
    endloop
  endfacet
  facet normal 2.12484e-16 0.290283 -0.956941
    outer loop
      vertex 23.75 5.09522 15.5404
      vertex 25.25 4.51368 15.364
      vertex 23.75 4.51368 15.364
    endloop
  endfacet
  facet normal 1.95826e-16 0.471397 -0.881921
    outer loop
      vertex 25.25 4.51368 15.364
      vertex 25.25 3.97773 15.0776
      vertex 23.75 4.51368 15.364
    endloop
  endfacet
  facet normal 1.95826e-16 0.471397 -0.881921
    outer loop
      vertex 23.75 4.51368 15.364
      vertex 25.25 3.97773 15.0776
      vertex 23.75 3.97773 15.0776
    endloop
  endfacet
  facet normal 1.71643e-16 0.634394 -0.77301
    outer loop
      vertex 25.25 3.97773 15.0776
      vertex 25.25 3.50797 14.692
      vertex 23.75 3.97773 15.0776
    endloop
  endfacet
  facet normal 1.71643e-16 0.634394 -0.77301
    outer loop
      vertex 23.75 3.97773 15.0776
      vertex 25.25 3.50797 14.692
      vertex 23.75 3.50797 14.692
    endloop
  endfacet
  facet normal 1.40864e-16 0.77301 -0.634394
    outer loop
      vertex 25.25 3.50797 14.692
      vertex 25.25 3.12244 14.2223
      vertex 23.75 3.50797 14.692
    endloop
  endfacet
  facet normal 1.40864e-16 0.77301 -0.634394
    outer loop
      vertex 23.75 3.50797 14.692
      vertex 25.25 3.12244 14.2223
      vertex 23.75 3.12244 14.2223
    endloop
  endfacet
  facet normal 1.04671e-16 0.881921 -0.471397
    outer loop
      vertex 25.25 3.12244 14.2223
      vertex 25.25 2.83597 13.6863
      vertex 23.75 3.12244 14.2223
    endloop
  endfacet
  facet normal 1.04671e-16 0.881921 -0.471397
    outer loop
      vertex 23.75 3.12244 14.2223
      vertex 25.25 2.83597 13.6863
      vertex 23.75 2.83597 13.6863
    endloop
  endfacet
  facet normal 6.44558e-17 0.956941 -0.290283
    outer loop
      vertex 25.25 2.83597 13.6863
      vertex 25.25 2.65957 13.1048
      vertex 23.75 2.83597 13.6863
    endloop
  endfacet
  facet normal 6.44558e-17 0.956941 -0.290283
    outer loop
      vertex 23.75 2.83597 13.6863
      vertex 25.25 2.65957 13.1048
      vertex 23.75 2.65957 13.1048
    endloop
  endfacet
  facet normal 2.17643e-17 0.995185 -0.0980177
    outer loop
      vertex 25.25 2.65957 13.1048
      vertex 25.25 2.6 12.5
      vertex 23.75 2.65957 13.1048
    endloop
  endfacet
  facet normal 2.17643e-17 0.995185 -0.0980177
    outer loop
      vertex 23.75 2.65957 13.1048
      vertex 25.25 2.6 12.5
      vertex 23.75 2.6 12.5
    endloop
  endfacet
  facet normal -2.15331e-17 0.995287 0.0969766
    outer loop
      vertex 25.25 10.388 12.11
      vertex 24.75 10.388 12.11
      vertex 25.25 10.35 12.5
    endloop
  endfacet
  facet normal -2.15331e-17 0.995287 0.0969766
    outer loop
      vertex 25.25 10.35 12.5
      vertex 24.75 10.388 12.11
      vertex 24.75 10.35 12.5
    endloop
  endfacet
  facet normal -6.45832e-17 0.956767 0.290857
    outer loop
      vertex 25.25 10.502 11.735
      vertex 24.75 10.502 11.735
      vertex 25.25 10.388 12.11
    endloop
  endfacet
  facet normal -6.45832e-17 0.956767 0.290857
    outer loop
      vertex 25.25 10.388 12.11
      vertex 24.75 10.502 11.735
      vertex 24.75 10.388 12.11
    endloop
  endfacet
  facet normal -1.04697e-16 0.881859 0.471514
    outer loop
      vertex 25.25 10.687 11.389
      vertex 24.75 10.687 11.389
      vertex 25.25 10.502 11.735
    endloop
  endfacet
  facet normal -1.04697e-16 0.881859 0.471514
    outer loop
      vertex 25.25 10.502 11.735
      vertex 24.75 10.687 11.389
      vertex 24.75 10.502 11.735
    endloop
  endfacet
  facet normal -1.40977e-16 0.772592 0.634903
    outer loop
      vertex 25.25 10.936 11.086
      vertex 24.75 10.936 11.086
      vertex 25.25 10.687 11.389
    endloop
  endfacet
  facet normal -1.40977e-16 0.772592 0.634903
    outer loop
      vertex 25.25 10.687 11.389
      vertex 24.75 10.936 11.086
      vertex 24.75 10.687 11.389
    endloop
  endfacet
  facet normal -1.7155e-16 0.634903 0.772592
    outer loop
      vertex 25.25 10.936 11.086
      vertex 25.25 11.239 10.837
      vertex 24.75 11.239 10.837
    endloop
  endfacet
  facet normal -1.7155e-16 0.634903 0.772592
    outer loop
      vertex 24.75 10.936 11.086
      vertex 25.25 10.936 11.086
      vertex 24.75 11.239 10.837
    endloop
  endfacet
  facet normal -1.95812e-16 0.471514 0.881859
    outer loop
      vertex 25.25 11.239 10.837
      vertex 25.25 11.585 10.652
      vertex 24.75 11.585 10.652
    endloop
  endfacet
  facet normal -1.95812e-16 0.471514 0.881859
    outer loop
      vertex 24.75 11.239 10.837
      vertex 25.25 11.239 10.837
      vertex 24.75 11.585 10.652
    endloop
  endfacet
  facet normal -2.12445e-16 0.290857 0.956767
    outer loop
      vertex 25.25 11.585 10.652
      vertex 25.25 11.96 10.538
      vertex 24.75 11.96 10.538
    endloop
  endfacet
  facet normal -2.12445e-16 0.290857 0.956767
    outer loop
      vertex 24.75 11.585 10.652
      vertex 25.25 11.585 10.652
      vertex 24.75 11.96 10.538
    endloop
  endfacet
  facet normal -2.20998e-16 0.0969766 0.995287
    outer loop
      vertex 25.25 11.96 10.538
      vertex 25.25 12.35 10.5
      vertex 24.75 12.35 10.5
    endloop
  endfacet
  facet normal -2.20998e-16 0.0969766 0.995287
    outer loop
      vertex 24.75 11.96 10.538
      vertex 25.25 11.96 10.538
      vertex 24.75 12.35 10.5
    endloop
  endfacet
  facet normal -2.20998e-16 -0.0969766 0.995287
    outer loop
      vertex 24.75 12.35 10.5
      vertex 25.25 12.35 10.5
      vertex 25.25 12.74 10.538
    endloop
  endfacet
  facet normal -2.20998e-16 -0.0969766 0.995287
    outer loop
      vertex 24.75 12.74 10.538
      vertex 24.75 12.35 10.5
      vertex 25.25 12.74 10.538
    endloop
  endfacet
  facet normal -2.12445e-16 -0.290857 0.956767
    outer loop
      vertex 24.75 12.74 10.538
      vertex 25.25 12.74 10.538
      vertex 25.25 13.115 10.652
    endloop
  endfacet
  facet normal -2.12445e-16 -0.290857 0.956767
    outer loop
      vertex 24.75 13.115 10.652
      vertex 24.75 12.74 10.538
      vertex 25.25 13.115 10.652
    endloop
  endfacet
  facet normal -1.95812e-16 -0.471514 0.881859
    outer loop
      vertex 24.75 13.115 10.652
      vertex 25.25 13.115 10.652
      vertex 25.25 13.461 10.837
    endloop
  endfacet
  facet normal -1.95812e-16 -0.471514 0.881859
    outer loop
      vertex 24.75 13.461 10.837
      vertex 24.75 13.115 10.652
      vertex 25.25 13.461 10.837
    endloop
  endfacet
  facet normal -1.7155e-16 -0.634903 0.772592
    outer loop
      vertex 24.75 13.461 10.837
      vertex 25.25 13.461 10.837
      vertex 25.25 13.764 11.086
    endloop
  endfacet
  facet normal -1.7155e-16 -0.634903 0.772592
    outer loop
      vertex 24.75 13.764 11.086
      vertex 24.75 13.461 10.837
      vertex 25.25 13.764 11.086
    endloop
  endfacet
  facet normal -1.40977e-16 -0.772592 0.634903
    outer loop
      vertex 24.75 13.764 11.086
      vertex 25.25 13.764 11.086
      vertex 25.25 14.013 11.389
    endloop
  endfacet
  facet normal -1.40977e-16 -0.772592 0.634903
    outer loop
      vertex 24.75 14.013 11.389
      vertex 24.75 13.764 11.086
      vertex 25.25 14.013 11.389
    endloop
  endfacet
  facet normal -1.04697e-16 -0.881859 0.471514
    outer loop
      vertex 24.75 14.013 11.389
      vertex 25.25 14.013 11.389
      vertex 25.25 14.198 11.735
    endloop
  endfacet
  facet normal -1.04697e-16 -0.881859 0.471514
    outer loop
      vertex 24.75 14.198 11.735
      vertex 24.75 14.013 11.389
      vertex 25.25 14.198 11.735
    endloop
  endfacet
  facet normal -6.45832e-17 -0.956767 0.290857
    outer loop
      vertex 24.75 14.198 11.735
      vertex 25.25 14.198 11.735
      vertex 25.25 14.312 12.11
    endloop
  endfacet
  facet normal -6.45832e-17 -0.956767 0.290857
    outer loop
      vertex 24.75 14.312 12.11
      vertex 24.75 14.198 11.735
      vertex 25.25 14.312 12.11
    endloop
  endfacet
  facet normal -2.15331e-17 -0.995287 0.0969766
    outer loop
      vertex 24.75 14.312 12.11
      vertex 25.25 14.312 12.11
      vertex 25.25 14.35 12.5
    endloop
  endfacet
  facet normal -2.15331e-17 -0.995287 0.0969766
    outer loop
      vertex 24.75 14.35 12.5
      vertex 24.75 14.312 12.11
      vertex 25.25 14.35 12.5
    endloop
  endfacet
  facet normal 2.15331e-17 -0.995287 -0.0969766
    outer loop
      vertex 24.75 14.35 12.5
      vertex 25.25 14.35 12.5
      vertex 25.25 14.312 12.89
    endloop
  endfacet
  facet normal 2.15331e-17 -0.995287 -0.0969766
    outer loop
      vertex 24.75 14.312 12.89
      vertex 24.75 14.35 12.5
      vertex 25.25 14.312 12.89
    endloop
  endfacet
  facet normal 6.45832e-17 -0.956767 -0.290857
    outer loop
      vertex 24.75 14.312 12.89
      vertex 25.25 14.312 12.89
      vertex 25.25 14.198 13.265
    endloop
  endfacet
  facet normal 6.45832e-17 -0.956767 -0.290857
    outer loop
      vertex 24.75 14.198 13.265
      vertex 24.75 14.312 12.89
      vertex 25.25 14.198 13.265
    endloop
  endfacet
  facet normal 1.04697e-16 -0.881859 -0.471514
    outer loop
      vertex 24.75 14.198 13.265
      vertex 25.25 14.198 13.265
      vertex 25.25 14.013 13.611
    endloop
  endfacet
  facet normal 1.04697e-16 -0.881859 -0.471514
    outer loop
      vertex 24.75 14.013 13.611
      vertex 24.75 14.198 13.265
      vertex 25.25 14.013 13.611
    endloop
  endfacet
  facet normal 1.40977e-16 -0.772592 -0.634903
    outer loop
      vertex 24.75 14.013 13.611
      vertex 25.25 14.013 13.611
      vertex 25.25 13.764 13.914
    endloop
  endfacet
  facet normal 1.40977e-16 -0.772592 -0.634903
    outer loop
      vertex 24.75 13.764 13.914
      vertex 24.75 14.013 13.611
      vertex 25.25 13.764 13.914
    endloop
  endfacet
  facet normal 1.7155e-16 -0.634903 -0.772592
    outer loop
      vertex 25.25 13.764 13.914
      vertex 25.25 13.461 14.163
      vertex 24.75 13.764 13.914
    endloop
  endfacet
  facet normal 1.7155e-16 -0.634903 -0.772592
    outer loop
      vertex 24.75 13.764 13.914
      vertex 25.25 13.461 14.163
      vertex 24.75 13.461 14.163
    endloop
  endfacet
  facet normal 1.95812e-16 -0.471514 -0.881859
    outer loop
      vertex 25.25 13.461 14.163
      vertex 25.25 13.115 14.348
      vertex 24.75 13.461 14.163
    endloop
  endfacet
  facet normal 1.95812e-16 -0.471514 -0.881859
    outer loop
      vertex 24.75 13.461 14.163
      vertex 25.25 13.115 14.348
      vertex 24.75 13.115 14.348
    endloop
  endfacet
  facet normal 2.12445e-16 -0.290857 -0.956767
    outer loop
      vertex 25.25 13.115 14.348
      vertex 25.25 12.74 14.462
      vertex 24.75 13.115 14.348
    endloop
  endfacet
  facet normal 2.12445e-16 -0.290857 -0.956767
    outer loop
      vertex 24.75 13.115 14.348
      vertex 25.25 12.74 14.462
      vertex 24.75 12.74 14.462
    endloop
  endfacet
  facet normal 2.20998e-16 -0.0969766 -0.995287
    outer loop
      vertex 25.25 12.74 14.462
      vertex 25.25 12.35 14.5
      vertex 24.75 12.74 14.462
    endloop
  endfacet
  facet normal 2.20998e-16 -0.0969766 -0.995287
    outer loop
      vertex 24.75 12.74 14.462
      vertex 25.25 12.35 14.5
      vertex 24.75 12.35 14.5
    endloop
  endfacet
  facet normal 2.20998e-16 0.0969766 -0.995287
    outer loop
      vertex 25.25 11.96 14.462
      vertex 24.75 11.96 14.462
      vertex 25.25 12.35 14.5
    endloop
  endfacet
  facet normal 2.20998e-16 0.0969766 -0.995287
    outer loop
      vertex 25.25 12.35 14.5
      vertex 24.75 11.96 14.462
      vertex 24.75 12.35 14.5
    endloop
  endfacet
  facet normal 2.12445e-16 0.290857 -0.956767
    outer loop
      vertex 25.25 11.585 14.348
      vertex 24.75 11.585 14.348
      vertex 25.25 11.96 14.462
    endloop
  endfacet
  facet normal 2.12445e-16 0.290857 -0.956767
    outer loop
      vertex 25.25 11.96 14.462
      vertex 24.75 11.585 14.348
      vertex 24.75 11.96 14.462
    endloop
  endfacet
  facet normal 1.95812e-16 0.471514 -0.881859
    outer loop
      vertex 25.25 11.239 14.163
      vertex 24.75 11.239 14.163
      vertex 25.25 11.585 14.348
    endloop
  endfacet
  facet normal 1.95812e-16 0.471514 -0.881859
    outer loop
      vertex 25.25 11.585 14.348
      vertex 24.75 11.239 14.163
      vertex 24.75 11.585 14.348
    endloop
  endfacet
  facet normal 1.7155e-16 0.634903 -0.772592
    outer loop
      vertex 25.25 10.936 13.914
      vertex 24.75 10.936 13.914
      vertex 25.25 11.239 14.163
    endloop
  endfacet
  facet normal 1.7155e-16 0.634903 -0.772592
    outer loop
      vertex 25.25 11.239 14.163
      vertex 24.75 10.936 13.914
      vertex 24.75 11.239 14.163
    endloop
  endfacet
  facet normal 1.40977e-16 0.772592 -0.634903
    outer loop
      vertex 25.25 10.687 13.611
      vertex 24.75 10.687 13.611
      vertex 25.25 10.936 13.914
    endloop
  endfacet
  facet normal 1.40977e-16 0.772592 -0.634903
    outer loop
      vertex 25.25 10.936 13.914
      vertex 24.75 10.687 13.611
      vertex 24.75 10.936 13.914
    endloop
  endfacet
  facet normal 1.04697e-16 0.881859 -0.471514
    outer loop
      vertex 25.25 10.502 13.265
      vertex 24.75 10.502 13.265
      vertex 25.25 10.687 13.611
    endloop
  endfacet
  facet normal 1.04697e-16 0.881859 -0.471514
    outer loop
      vertex 25.25 10.687 13.611
      vertex 24.75 10.502 13.265
      vertex 24.75 10.687 13.611
    endloop
  endfacet
  facet normal 6.45832e-17 0.956767 -0.290857
    outer loop
      vertex 25.25 10.388 12.89
      vertex 24.75 10.388 12.89
      vertex 25.25 10.502 13.265
    endloop
  endfacet
  facet normal 6.45832e-17 0.956767 -0.290857
    outer loop
      vertex 25.25 10.502 13.265
      vertex 24.75 10.388 12.89
      vertex 24.75 10.502 13.265
    endloop
  endfacet
  facet normal 2.15331e-17 0.995287 -0.0969766
    outer loop
      vertex 25.25 10.35 12.5
      vertex 24.75 10.35 12.5
      vertex 25.25 10.388 12.89
    endloop
  endfacet
  facet normal 2.15331e-17 0.995287 -0.0969766
    outer loop
      vertex 25.25 10.388 12.89
      vertex 24.75 10.35 12.5
      vertex 24.75 10.388 12.89
    endloop
  endfacet
  facet normal 0 -1 0
    outer loop
      vertex 23.75 14.25 23.5
      vertex 1.95 14.25 9.83333
      vertex 3.45 14.25 9.83333
    endloop
  endfacet
  facet normal 0 -1 0
    outer loop
      vertex 1.95 14.25 1.5
      vertex 1.95 14.25 9.83333
      vertex -23.75 14.25 23.5
    endloop
  endfacet
  facet normal 0 -1 0
    outer loop
      vertex 3.45 14.25 1.5
      vertex 23.75 14.25 1.5
      vertex 3.45 14.25 9.83333
    endloop
  endfacet
  facet normal 0 -1 0
    outer loop
      vertex 23.75 14.25 1.5
      vertex 23.75 14.25 23.5
      vertex 3.45 14.25 9.83333
    endloop
  endfacet
  facet normal 0 -1 0
    outer loop
      vertex 23.75 14.25 23.5
      vertex -23.75 14.25 23.5
      vertex 1.95 14.25 9.83333
    endloop
  endfacet
  facet normal 0 -1 0
    outer loop
      vertex -7.5971 14.25 2.5
      vertex -23.75 14.25 1.5
      vertex 1.95 14.25 1.5
    endloop
  endfacet
  facet normal 0 -1 0
    outer loop
      vertex -7.5971 14.25 2.5
      vertex -14.2029 14.25 2.5
      vertex -23.75 14.25 1.5
    endloop
  endfacet
  facet normal 0 -1 0
    outer loop
      vertex -23.75 14.25 23.5
      vertex -23.75 14.25 1.5
      vertex -14.9 14.25 4.97967
    endloop
  endfacet
  facet normal 0 -1 0
    outer loop
      vertex -23.75 14.25 23.5
      vertex -14.9 14.25 4.97967
      vertex -13.8797 14.25 6
    endloop
  endfacet
  facet normal 0 -1 0
    outer loop
      vertex -23.75 14.25 23.5
      vertex -7.92033 14.25 6
      vertex 1.95 14.25 1.5
    endloop
  endfacet
  facet normal 0 -1 0
    outer loop
      vertex -23.75 14.25 23.5
      vertex -13.8797 14.25 6
      vertex -7.92033 14.25 6
    endloop
  endfacet
  facet normal 0 -1 0
    outer loop
      vertex -7.92033 14.25 6
      vertex -6.9 14.25 4.97967
      vertex 1.95 14.25 1.5
    endloop
  endfacet
  facet normal 0 -1 0
    outer loop
      vertex -6.9 14.25 3.1971
      vertex -7.5971 14.25 2.5
      vertex 1.95 14.25 1.5
    endloop
  endfacet
  facet normal 0 -1 0
    outer loop
      vertex -14.9 14.25 3.1971
      vertex -23.75 14.25 1.5
      vertex -14.2029 14.25 2.5
    endloop
  endfacet
  facet normal 0 -1 0
    outer loop
      vertex -14.9 14.25 4.97967
      vertex -23.75 14.25 1.5
      vertex -14.9 14.25 3.1971
    endloop
  endfacet
  facet normal 0 -1 0
    outer loop
      vertex -6.9 14.25 4.97967
      vertex -6.9 14.25 3.1971
      vertex 1.95 14.25 1.5
    endloop
  endfacet
  facet normal 0 0 1
    outer loop
      vertex 23.75 14.25 23.5
      vertex 24.5 15 23.5
      vertex -24.5 15 23.5
    endloop
  endfacet
  facet normal 0 0 1
    outer loop
      vertex -24.5 -15 23.5
      vertex -23.75 14.25 23.5
      vertex -24.5 15 23.5
    endloop
  endfacet
  facet normal 0 0 1
    outer loop
      vertex 24.5 -15 23.5
      vertex 24.5 15 23.5
      vertex 23.75 14.25 23.5
    endloop
  endfacet
  facet normal 0 0 1
    outer loop
      vertex 23.75 -14.25 23.5
      vertex -23.75 -14.25 23.5
      vertex 24.5 -15 23.5
    endloop
  endfacet
  facet normal 0 0 1
    outer loop
      vertex 24.5 -15 23.5
      vertex 23.75 14.25 23.5
      vertex 23.75 -14.25 23.5
    endloop
  endfacet
  facet normal 0 0 1
    outer loop
      vertex -24.5 -15 23.5
      vertex -23.75 -14.25 23.5
      vertex -23.75 14.25 23.5
    endloop
  endfacet
  facet normal 0 0 1
    outer loop
      vertex -24.5 -15 23.5
      vertex 24.5 -15 23.5
      vertex -23.75 -14.25 23.5
    endloop
  endfacet
  facet normal 0 0 1
    outer loop
      vertex -23.75 14.25 23.5
      vertex 23.75 14.25 23.5
      vertex -24.5 15 23.5
    endloop
  endfacet
  facet normal 1 0 0
    outer loop
      vertex 24.75 -11.85 10.5
      vertex 24.75 -11.85 14.5
      vertex 24.75 -12.85 14.5
    endloop
  endfacet
  facet normal 1 0 0
    outer loop
      vertex 24.75 -12.85 10.5
      vertex 24.75 -11.85 10.5
      vertex 24.75 -12.85 14.5
    endloop
  endfacet
  facet normal -1 0 0
    outer loop
      vertex 23.75 3.97773 9.92244
      vertex 23.75 14.25 1.5
      vertex 23.75 -14.25 23.5
    endloop
  endfacet
  facet normal -1 0 0
    outer loop
      vertex 23.75 -6.88632 9.63597
      vertex 23.75 14.25 1.5
      vertex 23.75 -14.25 1.5
    endloop
  endfacet
  facet normal -1 0 0
    outer loop
      vertex 23.75 -4.51368 15.364
      vertex 23.75 -14.25 23.5
      vertex 23.75 -3.97773 15.0776
    endloop
  endfacet
  facet normal -1 0 0
    outer loop
      vertex 23.75 -14.25 23.5
      vertex 23.75 -8.74043 11.8952
      vertex 23.75 -14.25 1.5
    endloop
  endfacet
  facet normal -1 0 0
    outer loop
      vertex 23.75 -3.97773 9.92244
      vertex 23.75 14.25 1.5
      vertex 23.75 -4.51368 9.63597
    endloop
  endfacet
  facet normal -1 0 0
    outer loop
      vertex 23.75 -8.74043 11.8952
      vertex 23.75 -8.56403 11.3137
      vertex 23.75 -14.25 1.5
    endloop
  endfacet
  facet normal -1 0 0
    outer loop
      vertex 23.75 -8.56403 11.3137
      vertex 23.75 -8.27756 10.7777
      vertex 23.75 -14.25 1.5
    endloop
  endfacet
  facet normal -1 0 0
    outer loop
      vertex 23.75 -4.51368 9.63597
      vertex 23.75 14.25 1.5
      vertex 23.75 -5.09522 9.45957
    endloop
  endfacet
  facet normal -1 0 0
    outer loop
      vertex 23.75 -8.27756 10.7777
      vertex 23.75 -7.89203 10.308
      vertex 23.75 -14.25 1.5
    endloop
  endfacet
  facet normal -1 0 0
    outer loop
      vertex 23.75 -5.09522 9.45957
      vertex 23.75 14.25 1.5
      vertex 23.75 -5.7 9.4
    endloop
  endfacet
  facet normal -1 0 0
    outer loop
      vertex 23.75 -7.89203 10.308
      vertex 23.75 -7.42227 9.92244
      vertex 23.75 -14.25 1.5
    endloop
  endfacet
  facet normal -1 0 0
    outer loop
      vertex 23.75 -6.30478 9.45957
      vertex 23.75 14.25 1.5
      vertex 23.75 -6.88632 9.63597
    endloop
  endfacet
  facet normal -1 0 0
    outer loop
      vertex 23.75 -7.42227 9.92244
      vertex 23.75 -6.88632 9.63597
      vertex 23.75 -14.25 1.5
    endloop
  endfacet
  facet normal -1 0 0
    outer loop
      vertex 23.75 -3.50797 10.308
      vertex 23.75 14.25 1.5
      vertex 23.75 -3.97773 9.92244
    endloop
  endfacet
  facet normal -1 0 0
    outer loop
      vertex 23.75 -3.12244 10.7777
      vertex 23.75 14.25 1.5
      vertex 23.75 -3.50797 10.308
    endloop
  endfacet
  facet normal -1 0 0
    outer loop
      vertex 23.75 -2.83597 11.3137
      vertex 23.75 14.25 1.5
      vertex 23.75 -3.12244 10.7777
    endloop
  endfacet
  facet normal -1 0 0
    outer loop
      vertex 23.75 -2.65957 11.8952
      vertex 23.75 14.25 1.5
      vertex 23.75 -2.83597 11.3137
    endloop
  endfacet
  facet normal -1 0 0
    outer loop
      vertex 23.75 -2.6 12.5
      vertex 23.75 14.25 1.5
      vertex 23.75 -2.65957 11.8952
    endloop
  endfacet
  facet normal -1 0 0
    outer loop
      vertex 23.75 -2.65957 13.1048
      vertex 23.75 14.25 1.5
      vertex 23.75 -2.6 12.5
    endloop
  endfacet
  facet normal -1 0 0
    outer loop
      vertex 23.75 -2.83597 13.6863
      vertex 23.75 14.25 1.5
      vertex 23.75 -2.65957 13.1048
    endloop
  endfacet
  facet normal -1 0 0
    outer loop
      vertex 23.75 -3.12244 14.2223
      vertex 23.75 14.25 1.5
      vertex 23.75 -2.83597 13.6863
    endloop
  endfacet
  facet normal -1 0 0
    outer loop
      vertex 23.75 -3.50797 14.692
      vertex 23.75 14.25 1.5
      vertex 23.75 -3.12244 14.2223
    endloop
  endfacet
  facet normal -1 0 0
    outer loop
      vertex 23.75 -3.97773 15.0776
      vertex 23.75 14.25 1.5
      vertex 23.75 -3.50797 14.692
    endloop
  endfacet
  facet normal -1 0 0
    outer loop
      vertex 23.75 -14.25 23.5
      vertex 23.75 14.25 1.5
      vertex 23.75 -3.97773 15.0776
    endloop
  endfacet
  facet normal -1 0 0
    outer loop
      vertex 23.75 -5.09522 15.5404
      vertex 23.75 -14.25 23.5
      vertex 23.75 -4.51368 15.364
    endloop
  endfacet
  facet normal -1 0 0
    outer loop
      vertex 23.75 -5.7 15.6
      vertex 23.75 -14.25 23.5
      vertex 23.75 -5.09522 15.5404
    endloop
  endfacet
  facet normal -1 0 0
    outer loop
      vertex 23.75 -6.30478 15.5404
      vertex 23.75 -14.25 23.5
      vertex 23.75 -5.7 15.6
    endloop
  endfacet
  facet normal -1 0 0
    outer loop
      vertex 23.75 -6.88632 15.364
      vertex 23.75 -14.25 23.5
      vertex 23.75 -6.30478 15.5404
    endloop
  endfacet
  facet normal -1 0 0
    outer loop
      vertex 23.75 -7.42227 15.0776
      vertex 23.75 -14.25 23.5
      vertex 23.75 -6.88632 15.364
    endloop
  endfacet
  facet normal -1 0 0
    outer loop
      vertex 23.75 -7.89203 14.692
      vertex 23.75 -14.25 23.5
      vertex 23.75 -7.42227 15.0776
    endloop
  endfacet
  facet normal -1 0 0
    outer loop
      vertex 23.75 4.51368 9.63597
      vertex 23.75 14.25 1.5
      vertex 23.75 3.97773 9.92244
    endloop
  endfacet
  facet normal -1 0 0
    outer loop
      vertex 23.75 -14.25 23.5
      vertex 23.75 -7.89203 14.692
      vertex 23.75 -8.27756 14.2223
    endloop
  endfacet
  facet normal -1 0 0
    outer loop
      vertex 23.75 -14.25 23.5
      vertex 23.75 -8.27756 14.2223
      vertex 23.75 -8.56403 13.6863
    endloop
  endfacet
  facet normal -1 0 0
    outer loop
      vertex 23.75 -14.25 23.5
      vertex 23.75 -8.56403 13.6863
      vertex 23.75 -8.74043 13.1048
    endloop
  endfacet
  facet normal -1 0 0
    outer loop
      vertex 23.75 -14.25 23.5
      vertex 23.75 -8.74043 13.1048
      vertex 23.75 -8.8 12.5
    endloop
  endfacet
  facet normal -1 0 0
    outer loop
      vertex 23.75 -14.25 23.5
      vertex 23.75 -8.8 12.5
      vertex 23.75 -8.74043 11.8952
    endloop
  endfacet
  facet normal -1 0 0
    outer loop
      vertex 23.75 8.74043 11.8952
      vertex 23.75 14.25 23.5
      vertex 23.75 8.56403 11.3137
    endloop
  endfacet
  facet normal -1 0 0
    outer loop
      vertex 23.75 2.6 12.5
      vertex 23.75 2.65957 11.8952
      vertex 23.75 -14.25 23.5
    endloop
  endfacet
  facet normal -1 0 0
    outer loop
      vertex 23.75 5.7 9.4
      vertex 23.75 14.25 1.5
      vertex 23.75 5.09522 9.45957
    endloop
  endfacet
  facet normal -1 0 0
    outer loop
      vertex 23.75 2.65957 11.8952
      vertex 23.75 2.83597 11.3137
      vertex 23.75 -14.25 23.5
    endloop
  endfacet
  facet normal -1 0 0
    outer loop
      vertex 23.75 5.09522 9.45957
      vertex 23.75 14.25 1.5
      vertex 23.75 4.51368 9.63597
    endloop
  endfacet
  facet normal -1 0 0
    outer loop
      vertex 23.75 2.83597 11.3137
      vertex 23.75 3.12244 10.7777
      vertex 23.75 -14.25 23.5
    endloop
  endfacet
  facet normal -1 0 0
    outer loop
      vertex 23.75 3.12244 10.7777
      vertex 23.75 3.50797 10.308
      vertex 23.75 -14.25 23.5
    endloop
  endfacet
  facet normal -1 0 0
    outer loop
      vertex 23.75 3.50797 10.308
      vertex 23.75 3.97773 9.92244
      vertex 23.75 -14.25 23.5
    endloop
  endfacet
  facet normal -1 0 0
    outer loop
      vertex 23.75 6.30478 9.45957
      vertex 23.75 14.25 1.5
      vertex 23.75 5.7 9.4
    endloop
  endfacet
  facet normal -1 0 0
    outer loop
      vertex 23.75 6.88632 9.63597
      vertex 23.75 14.25 1.5
      vertex 23.75 6.30478 9.45957
    endloop
  endfacet
  facet normal -1 0 0
    outer loop
      vertex 23.75 7.42227 9.92244
      vertex 23.75 14.25 1.5
      vertex 23.75 6.88632 9.63597
    endloop
  endfacet
  facet normal -1 0 0
    outer loop
      vertex 23.75 7.89203 10.308
      vertex 23.75 14.25 1.5
      vertex 23.75 7.42227 9.92244
    endloop
  endfacet
  facet normal -1 0 0
    outer loop
      vertex 23.75 8.27756 10.7777
      vertex 23.75 14.25 1.5
      vertex 23.75 7.89203 10.308
    endloop
  endfacet
  facet normal -1 0 0
    outer loop
      vertex 23.75 8.56403 11.3137
      vertex 23.75 14.25 1.5
      vertex 23.75 8.27756 10.7777
    endloop
  endfacet
  facet normal -1 0 0
    outer loop
      vertex 23.75 14.25 23.5
      vertex 23.75 14.25 1.5
      vertex 23.75 8.56403 11.3137
    endloop
  endfacet
  facet normal -1 0 0
    outer loop
      vertex 23.75 8.8 12.5
      vertex 23.75 14.25 23.5
      vertex 23.75 8.74043 11.8952
    endloop
  endfacet
  facet normal -1 0 0
    outer loop
      vertex 23.75 8.74043 13.1048
      vertex 23.75 14.25 23.5
      vertex 23.75 8.8 12.5
    endloop
  endfacet
  facet normal -1 0 0
    outer loop
      vertex 23.75 8.56403 13.6863
      vertex 23.75 14.25 23.5
      vertex 23.75 8.74043 13.1048
    endloop
  endfacet
  facet normal -1 0 0
    outer loop
      vertex 23.75 8.27756 14.2223
      vertex 23.75 14.25 23.5
      vertex 23.75 8.56403 13.6863
    endloop
  endfacet
  facet normal -1 0 0
    outer loop
      vertex 23.75 5.7 15.6
      vertex 23.75 14.25 23.5
      vertex 23.75 6.30478 15.5404
    endloop
  endfacet
  facet normal -1 0 0
    outer loop
      vertex 23.75 14.25 23.5
      vertex 23.75 8.27756 14.2223
      vertex 23.75 7.89203 14.692
    endloop
  endfacet
  facet normal -1 0 0
    outer loop
      vertex 23.75 14.25 23.5
      vertex 23.75 7.89203 14.692
      vertex 23.75 7.42227 15.0776
    endloop
  endfacet
  facet normal -1 0 0
    outer loop
      vertex 23.75 14.25 23.5
      vertex 23.75 7.42227 15.0776
      vertex 23.75 6.88632 15.364
    endloop
  endfacet
  facet normal -1 0 0
    outer loop
      vertex 23.75 14.25 23.5
      vertex 23.75 6.88632 15.364
      vertex 23.75 6.30478 15.5404
    endloop
  endfacet
  facet normal -1 0 0
    outer loop
      vertex 23.75 14.25 23.5
      vertex 23.75 5.7 15.6
      vertex 23.75 -14.25 23.5
    endloop
  endfacet
  facet normal -1 0 0
    outer loop
      vertex 23.75 5.7 15.6
      vertex 23.75 5.09522 15.5404
      vertex 23.75 -14.25 23.5
    endloop
  endfacet
  facet normal -1 0 0
    outer loop
      vertex 23.75 5.09522 15.5404
      vertex 23.75 4.51368 15.364
      vertex 23.75 -14.25 23.5
    endloop
  endfacet
  facet normal -1 0 0
    outer loop
      vertex 23.75 4.51368 15.364
      vertex 23.75 3.97773 15.0776
      vertex 23.75 -14.25 23.5
    endloop
  endfacet
  facet normal -1 0 0
    outer loop
      vertex 23.75 3.97773 15.0776
      vertex 23.75 3.50797 14.692
      vertex 23.75 -14.25 23.5
    endloop
  endfacet
  facet normal -1 0 0
    outer loop
      vertex 23.75 3.50797 14.692
      vertex 23.75 3.12244 14.2223
      vertex 23.75 -14.25 23.5
    endloop
  endfacet
  facet normal -1 0 0
    outer loop
      vertex 23.75 3.12244 14.2223
      vertex 23.75 2.83597 13.6863
      vertex 23.75 -14.25 23.5
    endloop
  endfacet
  facet normal -1 0 0
    outer loop
      vertex 23.75 2.83597 13.6863
      vertex 23.75 2.65957 13.1048
      vertex 23.75 -14.25 23.5
    endloop
  endfacet
  facet normal -1 0 0
    outer loop
      vertex 23.75 2.65957 13.1048
      vertex 23.75 2.6 12.5
      vertex 23.75 -14.25 23.5
    endloop
  endfacet
  facet normal -1 0 0
    outer loop
      vertex 23.75 -5.7 9.4
      vertex 23.75 14.25 1.5
      vertex 23.75 -6.30478 9.45957
    endloop
  endfacet
  facet normal 1 0 2.22045e-16
    outer loop
      vertex 24.75 11.96 14.462
      vertex 24.75 11.585 14.348
      vertex 24.75 11.239 14.163
    endloop
  endfacet
  facet normal 1 0 2.22045e-16
    outer loop
      vertex 24.75 10.687 13.611
      vertex 24.75 11.96 14.462
      vertex 24.75 10.936 13.914
    endloop
  endfacet
  facet normal 1 0 2.22045e-16
    outer loop
      vertex 24.75 10.936 13.914
      vertex 24.75 11.96 14.462
      vertex 24.75 11.239 14.163
    endloop
  endfacet
  facet normal 1 0 2.22045e-16
    outer loop
      vertex 24.75 10.502 13.265
      vertex 24.75 11.96 14.462
      vertex 24.75 10.687 13.611
    endloop
  endfacet
  facet normal 1 0 2.22045e-16
    outer loop
      vertex 24.75 10.388 12.89
      vertex 24.75 11.96 14.462
      vertex 24.75 10.502 13.265
    endloop
  endfacet
  facet normal 1 0 2.22045e-16
    outer loop
      vertex 24.75 10.35 12.5
      vertex 24.75 11.96 14.462
      vertex 24.75 10.388 12.89
    endloop
  endfacet
  facet normal 1 0 2.22045e-16
    outer loop
      vertex 24.75 10.388 12.11
      vertex 24.75 11.96 14.462
      vertex 24.75 10.35 12.5
    endloop
  endfacet
  facet normal 1 0 2.22045e-16
    outer loop
      vertex 24.75 10.502 11.735
      vertex 24.75 11.96 14.462
      vertex 24.75 10.388 12.11
    endloop
  endfacet
  facet normal 1 0 2.22045e-16
    outer loop
      vertex 24.75 10.687 11.389
      vertex 24.75 11.96 14.462
      vertex 24.75 10.502 11.735
    endloop
  endfacet
  facet normal 1 0 2.22045e-16
    outer loop
      vertex 24.75 10.936 11.086
      vertex 24.75 11.96 14.462
      vertex 24.75 10.687 11.389
    endloop
  endfacet
  facet normal 1 0 2.22045e-16
    outer loop
      vertex 24.75 11.239 10.837
      vertex 24.75 11.96 14.462
      vertex 24.75 10.936 11.086
    endloop
  endfacet
  facet normal 1 0 2.22045e-16
    outer loop
      vertex 24.75 11.585 10.652
      vertex 24.75 11.96 14.462
      vertex 24.75 11.239 10.837
    endloop
  endfacet
  facet normal 1 0 2.22045e-16
    outer loop
      vertex 24.75 11.96 10.538
      vertex 24.75 11.96 14.462
      vertex 24.75 11.585 10.652
    endloop
  endfacet
  facet normal 1 0 2.22045e-16
    outer loop
      vertex 24.75 12.35 10.5
      vertex 24.75 11.96 14.462
      vertex 24.75 11.96 10.538
    endloop
  endfacet
  facet normal 1 0 2.22045e-16
    outer loop
      vertex 24.75 12.74 10.538
      vertex 24.75 11.96 14.462
      vertex 24.75 12.35 10.5
    endloop
  endfacet
  facet normal 1 0 2.22045e-16
    outer loop
      vertex 24.75 13.115 10.652
      vertex 24.75 11.96 14.462
      vertex 24.75 12.74 10.538
    endloop
  endfacet
  facet normal 1 0 2.22045e-16
    outer loop
      vertex 24.75 13.461 10.837
      vertex 24.75 11.96 14.462
      vertex 24.75 13.115 10.652
    endloop
  endfacet
  facet normal 1 0 2.22045e-16
    outer loop
      vertex 24.75 13.764 11.086
      vertex 24.75 11.96 14.462
      vertex 24.75 13.461 10.837
    endloop
  endfacet
  facet normal 1 0 2.22045e-16
    outer loop
      vertex 24.75 14.013 11.389
      vertex 24.75 11.96 14.462
      vertex 24.75 13.764 11.086
    endloop
  endfacet
  facet normal 1 0 2.22045e-16
    outer loop
      vertex 24.75 14.198 11.735
      vertex 24.75 11.96 14.462
      vertex 24.75 14.013 11.389
    endloop
  endfacet
  facet normal 1 0 2.22045e-16
    outer loop
      vertex 24.75 14.312 12.11
      vertex 24.75 11.96 14.462
      vertex 24.75 14.198 11.735
    endloop
  endfacet
  facet normal 1 0 2.22045e-16
    outer loop
      vertex 24.75 14.35 12.5
      vertex 24.75 11.96 14.462
      vertex 24.75 14.312 12.11
    endloop
  endfacet
  facet normal 1 0 2.22045e-16
    outer loop
      vertex 24.75 14.312 12.89
      vertex 24.75 11.96 14.462
      vertex 24.75 14.35 12.5
    endloop
  endfacet
  facet normal 1 0 2.22045e-16
    outer loop
      vertex 24.75 14.198 13.265
      vertex 24.75 11.96 14.462
      vertex 24.75 14.312 12.89
    endloop
  endfacet
  facet normal 1 0 2.22045e-16
    outer loop
      vertex 24.75 14.013 13.611
      vertex 24.75 11.96 14.462
      vertex 24.75 14.198 13.265
    endloop
  endfacet
  facet normal 1 0 2.22045e-16
    outer loop
      vertex 24.75 13.764 13.914
      vertex 24.75 11.96 14.462
      vertex 24.75 14.013 13.611
    endloop
  endfacet
  facet normal 1 0 2.22045e-16
    outer loop
      vertex 24.75 13.461 14.163
      vertex 24.75 11.96 14.462
      vertex 24.75 13.764 13.914
    endloop
  endfacet
  facet normal 1 0 2.22045e-16
    outer loop
      vertex 24.75 13.115 14.348
      vertex 24.75 11.96 14.462
      vertex 24.75 13.461 14.163
    endloop
  endfacet
  facet normal 1 0 2.22045e-16
    outer loop
      vertex 24.75 12.74 14.462
      vertex 24.75 11.96 14.462
      vertex 24.75 13.115 14.348
    endloop
  endfacet
  facet normal 1 0 2.22045e-16
    outer loop
      vertex 24.75 12.35 14.5
      vertex 24.75 11.96 14.462
      vertex 24.75 12.74 14.462
    endloop
  endfacet
  facet normal 0 0 1
    outer loop
      vertex 1.95 -14.25 1.5
      vertex 1.95 14.25 1.5
      vertex -23.75 14.25 1.5
    endloop
  endfacet
  facet normal 0 0 1
    outer loop
      vertex -23.75 -14.25 1.5
      vertex 1.95 -14.25 1.5
      vertex -23.75 14.25 1.5
    endloop
  endfacet
  facet normal -1 0 0
    outer loop
      vertex 1.95 -14.25 1.5
      vertex 1.95 -14.25 9.83333
      vertex 1.95 14.25 1.5
    endloop
  endfacet
  facet normal -1 0 0
    outer loop
      vertex 1.95 14.25 1.5
      vertex 1.95 -14.25 9.83333
      vertex 1.95 14.25 9.83333
    endloop
  endfacet
  facet normal 1 0 0
    outer loop
      vertex -23.75 14.25 1.5
      vertex -23.75 14.25 23.5
      vertex -23.75 -14.25 23.5
    endloop
  endfacet
  facet normal 1 0 0
    outer loop
      vertex -23.75 -14.25 1.5
      vertex -23.75 14.25 1.5
      vertex -23.75 -14.25 23.5
    endloop
  endfacet
  facet normal 0 0 1
    outer loop
      vertex 23.75 -14.25 1.5
      vertex 23.75 14.25 1.5
      vertex 3.45 14.25 1.5
    endloop
  endfacet
  facet normal 0 0 1
    outer loop
      vertex 3.45 -14.25 1.5
      vertex 23.75 -14.25 1.5
      vertex 3.45 14.25 1.5
    endloop
  endfacet
  facet normal 1 0 0
    outer loop
      vertex 3.45 -14.25 9.83333
      vertex 3.45 -14.25 1.5
      vertex 3.45 14.25 1.5
    endloop
  endfacet
  facet normal 1 0 0
    outer loop
      vertex 3.45 14.25 9.83333
      vertex 3.45 -14.25 9.83333
      vertex 3.45 14.25 1.5
    endloop
  endfacet
  facet normal 0 0 1
    outer loop
      vertex 1.95 14.25 9.83333
      vertex 1.95 -14.25 9.83333
      vertex 3.45 -14.25 9.83333
    endloop
  endfacet
  facet normal 0 0 1
    outer loop
      vertex 3.45 14.25 9.83333
      vertex 1.95 14.25 9.83333
      vertex 3.45 -14.25 9.83333
    endloop
  endfacet
  facet normal 0 1 0
    outer loop
      vertex 23.75 -14.25 23.5
      vertex 23.75 -14.25 1.5
      vertex -23.75 -14.25 23.5
    endloop
  endfacet
  facet normal 0 1 0
    outer loop
      vertex 3.45 -14.25 9.83333
      vertex 23.75 -14.25 1.5
      vertex 3.45 -14.25 1.5
    endloop
  endfacet
  facet normal 0 1 0
    outer loop
      vertex -23.75 -14.25 23.5
      vertex 23.75 -14.25 1.5
      vertex 3.45 -14.25 9.83333
    endloop
  endfacet
  facet normal 0 1 0
    outer loop
      vertex -23.75 -14.25 23.5
      vertex 3.45 -14.25 9.83333
      vertex 1.95 -14.25 9.83333
    endloop
  endfacet
  facet normal 0 1 0
    outer loop
      vertex -23.75 -14.25 23.5
      vertex 1.95 -14.25 1.5
      vertex -23.75 -14.25 1.5
    endloop
  endfacet
  facet normal 0 1 0
    outer loop
      vertex 1.95 -14.25 1.5
      vertex -23.75 -14.25 23.5
      vertex 1.95 -14.25 9.83333
    endloop
  endfacet
  facet normal -1 0 0
    outer loop
      vertex -24.325 -49.93 0
      vertex -24.325 -49.93 1.5
      vertex -24.325 -20.07 0
    endloop
  endfacet
  facet normal -1 0 0
    outer loop
      vertex -24.325 -20.07 0
      vertex -24.325 -49.93 1.5
      vertex -24.325 -20.07 1.5
    endloop
  endfacet
  facet normal 0 -1 0
    outer loop
      vertex -24.325 -49.93 1.5
      vertex -24.325 -49.93 0
      vertex 24.325 -49.93 0
    endloop
  endfacet
  facet normal 0 -1 0
    outer loop
      vertex 24.325 -49.93 1.5
      vertex -24.325 -49.93 1.5
      vertex 24.325 -49.93 0
    endloop
  endfacet
  facet normal 0 0 -1
    outer loop
      vertex -4.5 -33.5 0
      vertex -24.325 -20.07 0
      vertex -4.5 -32.5 0
    endloop
  endfacet
  facet normal 0 0 -1
    outer loop
      vertex 24.325 -31 0
      vertex -24.325 -20.07 0
      vertex 24.325 -20.07 0
    endloop
  endfacet
  facet normal 0 0 -1
    outer loop
      vertex 23.68 -31 0
      vertex -24.325 -20.07 0
      vertex 24.325 -31 0
    endloop
  endfacet
  facet normal 0 0 -1
    outer loop
      vertex 23.68 -39 0
      vertex -24.325 -20.07 0
      vertex 23.68 -31 0
    endloop
  endfacet
  facet normal 0 0 -1
    outer loop
      vertex -1.5 -32.5 0
      vertex -24.325 -20.07 0
      vertex 23.68 -39 0
    endloop
  endfacet
  facet normal 0 0 -1
    outer loop
      vertex -4.5 -35.5 0
      vertex -24.325 -20.07 0
      vertex -4.5 -34.5 0
    endloop
  endfacet
  facet normal 0 0 -1
    outer loop
      vertex -24.325 -49.93 0
      vertex -24.325 -20.07 0
      vertex -4.5 -36.5 0
    endloop
  endfacet
  facet normal 0 0 -1
    outer loop
      vertex -1.5 -33.5 0
      vertex 24.325 -49.93 0
      vertex -1.5 -34.5 0
    endloop
  endfacet
  facet normal 0 0 -1
    outer loop
      vertex -24.325 -49.93 0
      vertex -4.5 -36.5 0
      vertex -4.5 -37.5 0
    endloop
  endfacet
  facet normal 0 0 -1
    outer loop
      vertex -24.325 -49.93 0
      vertex -4.5 -37.5 0
      vertex 24.325 -49.93 0
    endloop
  endfacet
  facet normal 0 0 -1
    outer loop
      vertex -4.5 -34.5 0
      vertex -24.325 -20.07 0
      vertex -4.5 -33.5 0
    endloop
  endfacet
  facet normal 0 0 -1
    outer loop
      vertex -1.5 -35.5 0
      vertex -1.5 -36.5 0
      vertex -4.5 -35.5 0
    endloop
  endfacet
  facet normal 0 0 -1
    outer loop
      vertex -1.5 -37.5 0
      vertex -1.5 -36.5 0
      vertex 24.325 -49.93 0
    endloop
  endfacet
  facet normal 0 0 -1
    outer loop
      vertex -4.5 -34.5 0
      vertex -4.5 -33.5 0
      vertex -1.5 -34.5 0
    endloop
  endfacet
  facet normal 0 0 -1
    outer loop
      vertex -4.5 -32.5 0
      vertex -24.325 -20.07 0
      vertex -1.5 -32.5 0
    endloop
  endfacet
  facet normal 0 0 -1
    outer loop
      vertex -4.5 -36.5 0
      vertex -24.325 -20.07 0
      vertex -4.5 -35.5 0
    endloop
  endfacet
  facet normal 0 0 -1
    outer loop
      vertex -1.5 -37.5 0
      vertex 24.325 -49.93 0
      vertex -4.5 -37.5 0
    endloop
  endfacet
  facet normal 0 0 -1
    outer loop
      vertex -1.5 -36.5 0
      vertex -1.5 -35.5 0
      vertex 24.325 -49.93 0
    endloop
  endfacet
  facet normal 0 0 -1
    outer loop
      vertex -1.5 -35.5 0
      vertex -1.5 -34.5 0
      vertex 24.325 -49.93 0
    endloop
  endfacet
  facet normal 0 0 -1
    outer loop
      vertex -1.5 -33.5 0
      vertex -1.5 -34.5 0
      vertex -4.5 -33.5 0
    endloop
  endfacet
  facet normal 0 0 -1
    outer loop
      vertex 24.325 -49.93 0
      vertex -1.5 -33.5 0
      vertex 23.68 -39 0
    endloop
  endfacet
  facet normal 0 0 -1
    outer loop
      vertex -1.5 -33.5 0
      vertex -1.5 -32.5 0
      vertex 23.68 -39 0
    endloop
  endfacet
  facet normal 0 0 -1
    outer loop
      vertex 24.325 -39 0
      vertex 24.325 -49.93 0
      vertex 23.68 -39 0
    endloop
  endfacet
  facet normal 0 0 -1
    outer loop
      vertex -4.5 -36.5 0
      vertex -4.5 -35.5 0
      vertex -1.5 -36.5 0
    endloop
  endfacet
  facet normal 0 1 0
    outer loop
      vertex -24.325 -20.07 0
      vertex -24.325 -20.07 1.5
      vertex 24.325 -20.07 0
    endloop
  endfacet
  facet normal 0 1 0
    outer loop
      vertex 24.325 -20.07 0
      vertex -24.325 -20.07 1.5
      vertex 24.325 -20.07 1.5
    endloop
  endfacet
  facet normal 0 0 1
    outer loop
      vertex -4.5 -37.5 1.5
      vertex -24.325 -49.93 1.5
      vertex 24.325 -49.93 1.5
    endloop
  endfacet
  facet normal 0 0 1
    outer loop
      vertex 24.325 -39 1.5
      vertex 23.68 -39 1.5
      vertex 24.325 -49.93 1.5
    endloop
  endfacet
  facet normal 0 0 1
    outer loop
      vertex -1.5 -37.5 1.5
      vertex -4.5 -37.5 1.5
      vertex 24.325 -49.93 1.5
    endloop
  endfacet
  facet normal 0 0 1
    outer loop
      vertex 24.325 -31 1.5
      vertex -24.325 -20.07 1.5
      vertex 23.68 -31 1.5
    endloop
  endfacet
  facet normal 0 0 1
    outer loop
      vertex 24.325 -20.07 1.5
      vertex -24.325 -20.07 1.5
      vertex 24.325 -31 1.5
    endloop
  endfacet
  facet normal 0 0 1
    outer loop
      vertex -4.5 -34.5 1.5
      vertex -4.5 -33.5 1.5
      vertex -24.325 -20.07 1.5
    endloop
  endfacet
  facet normal 0 0 1
    outer loop
      vertex -24.325 -20.07 1.5
      vertex -24.325 -49.93 1.5
      vertex -4.5 -37.5 1.5
    endloop
  endfacet
  facet normal 0 0 1
    outer loop
      vertex -24.325 -20.07 1.5
      vertex -4.5 -37.5 1.5
      vertex -4.5 -36.5 1.5
    endloop
  endfacet
  facet normal 0 0 1
    outer loop
      vertex -1.5 -34.5 1.5
      vertex -1.5 -35.5 1.5
      vertex 24.325 -49.93 1.5
    endloop
  endfacet
  facet normal 0 0 1
    outer loop
      vertex -4.5 -35.5 1.5
      vertex -4.5 -36.5 1.5
      vertex -1.5 -36.5 1.5
    endloop
  endfacet
  facet normal 0 0 1
    outer loop
      vertex -1.5 -36.5 1.5
      vertex -1.5 -37.5 1.5
      vertex 24.325 -49.93 1.5
    endloop
  endfacet
  facet normal 0 0 1
    outer loop
      vertex -24.325 -20.07 1.5
      vertex -4.5 -36.5 1.5
      vertex -4.5 -35.5 1.5
    endloop
  endfacet
  facet normal 0 0 1
    outer loop
      vertex -24.325 -20.07 1.5
      vertex -4.5 -35.5 1.5
      vertex -4.5 -34.5 1.5
    endloop
  endfacet
  facet normal 0 0 1
    outer loop
      vertex -1.5 -35.5 1.5
      vertex -1.5 -36.5 1.5
      vertex 24.325 -49.93 1.5
    endloop
  endfacet
  facet normal 0 0 1
    outer loop
      vertex -4.5 -33.5 1.5
      vertex -4.5 -32.5 1.5
      vertex -24.325 -20.07 1.5
    endloop
  endfacet
  facet normal 0 0 1
    outer loop
      vertex -1.5 -33.5 1.5
      vertex -1.5 -34.5 1.5
      vertex 24.325 -49.93 1.5
    endloop
  endfacet
  facet normal 0 0 1
    outer loop
      vertex -4.5 -34.5 1.5
      vertex -1.5 -34.5 1.5
      vertex -4.5 -33.5 1.5
    endloop
  endfacet
  facet normal 0 0 1
    outer loop
      vertex -4.5 -32.5 1.5
      vertex -1.5 -32.5 1.5
      vertex -24.325 -20.07 1.5
    endloop
  endfacet
  facet normal 0 0 1
    outer loop
      vertex 23.68 -39 1.5
      vertex -1.5 -32.5 1.5
      vertex 24.325 -49.93 1.5
    endloop
  endfacet
  facet normal 0 0 1
    outer loop
      vertex 23.68 -39 1.5
      vertex -24.325 -20.07 1.5
      vertex -1.5 -32.5 1.5
    endloop
  endfacet
  facet normal 0 0 1
    outer loop
      vertex -1.5 -32.5 1.5
      vertex -1.5 -33.5 1.5
      vertex 24.325 -49.93 1.5
    endloop
  endfacet
  facet normal 0 0 1
    outer loop
      vertex 23.68 -39 1.5
      vertex 23.68 -31 1.5
      vertex -24.325 -20.07 1.5
    endloop
  endfacet
  facet normal 0 0 1
    outer loop
      vertex -1.5 -35.5 1.5
      vertex -4.5 -35.5 1.5
      vertex -1.5 -36.5 1.5
    endloop
  endfacet
  facet normal 0 0 1
    outer loop
      vertex -1.5 -33.5 1.5
      vertex -4.5 -33.5 1.5
      vertex -1.5 -34.5 1.5
    endloop
  endfacet
  facet normal 1 0 0
    outer loop
      vertex 24.325 -49.93 1.5
      vertex 24.325 -49.93 0
      vertex 24.325 -39 0
    endloop
  endfacet
  facet normal 1 0 0
    outer loop
      vertex 24.325 -39 1.5
      vertex 24.325 -49.93 1.5
      vertex 24.325 -39 0
    endloop
  endfacet
  facet normal 0 1 0
    outer loop
      vertex 24.325 -39 1.5
      vertex 24.325 -39 0
      vertex 23.68 -39 1.5
    endloop
  endfacet
  facet normal 0 1 0
    outer loop
      vertex 23.68 -39 1.5
      vertex 24.325 -39 0
      vertex 23.68 -39 0
    endloop
  endfacet
  facet normal 1 0 0
    outer loop
      vertex 23.68 -31 0
      vertex 23.68 -31 1.5
      vertex 23.68 -39 1.5
    endloop
  endfacet
  facet normal 1 0 0
    outer loop
      vertex 23.68 -39 0
      vertex 23.68 -31 0
      vertex 23.68 -39 1.5
    endloop
  endfacet
  facet normal 0 -1 0
    outer loop
      vertex 24.325 -31 0
      vertex 24.325 -31 1.5
      vertex 23.68 -31 1.5
    endloop
  endfacet
  facet normal 0 -1 0
    outer loop
      vertex 23.68 -31 0
      vertex 24.325 -31 0
      vertex 23.68 -31 1.5
    endloop
  endfacet
  facet normal 1 0 0
    outer loop
      vertex 24.325 -31 1.5
      vertex 24.325 -31 0
      vertex 24.325 -20.07 0
    endloop
  endfacet
  facet normal 1 0 0
    outer loop
      vertex 24.325 -20.07 1.5
      vertex 24.325 -31 1.5
      vertex 24.325 -20.07 0
    endloop
  endfacet
  facet normal 1 0 0
    outer loop
      vertex -4.5 -36.5 0
      vertex -4.5 -36.5 1.5
      vertex -4.5 -37.5 1.5
    endloop
  endfacet
  facet normal 1 0 0
    outer loop
      vertex -4.5 -37.5 0
      vertex -4.5 -36.5 0
      vertex -4.5 -37.5 1.5
    endloop
  endfacet
  facet normal 0 -1 0
    outer loop
      vertex -1.5 -36.5 0
      vertex -1.5 -36.5 1.5
      vertex -4.5 -36.5 1.5
    endloop
  endfacet
  facet normal 0 -1 0
    outer loop
      vertex -4.5 -36.5 0
      vertex -1.5 -36.5 0
      vertex -4.5 -36.5 1.5
    endloop
  endfacet
  facet normal -1 0 0
    outer loop
      vertex -1.5 -36.5 1.5
      vertex -1.5 -36.5 0
      vertex -1.5 -37.5 1.5
    endloop
  endfacet
  facet normal -1 0 0
    outer loop
      vertex -1.5 -37.5 1.5
      vertex -1.5 -36.5 0
      vertex -1.5 -37.5 0
    endloop
  endfacet
  facet normal 0 1 0
    outer loop
      vertex -1.5 -37.5 1.5
      vertex -1.5 -37.5 0
      vertex -4.5 -37.5 1.5
    endloop
  endfacet
  facet normal 0 1 0
    outer loop
      vertex -4.5 -37.5 1.5
      vertex -1.5 -37.5 0
      vertex -4.5 -37.5 0
    endloop
  endfacet
  facet normal 1 0 0
    outer loop
      vertex -4.5 -34.5 0
      vertex -4.5 -34.5 1.5
      vertex -4.5 -35.5 1.5
    endloop
  endfacet
  facet normal 1 0 0
    outer loop
      vertex -4.5 -35.5 0
      vertex -4.5 -34.5 0
      vertex -4.5 -35.5 1.5
    endloop
  endfacet
  facet normal 0 -1 0
    outer loop
      vertex -1.5 -34.5 0
      vertex -1.5 -34.5 1.5
      vertex -4.5 -34.5 1.5
    endloop
  endfacet
  facet normal 0 -1 0
    outer loop
      vertex -4.5 -34.5 0
      vertex -1.5 -34.5 0
      vertex -4.5 -34.5 1.5
    endloop
  endfacet
  facet normal -1 0 0
    outer loop
      vertex -1.5 -34.5 1.5
      vertex -1.5 -34.5 0
      vertex -1.5 -35.5 1.5
    endloop
  endfacet
  facet normal -1 0 0
    outer loop
      vertex -1.5 -35.5 1.5
      vertex -1.5 -34.5 0
      vertex -1.5 -35.5 0
    endloop
  endfacet
  facet normal 0 1 0
    outer loop
      vertex -1.5 -35.5 1.5
      vertex -1.5 -35.5 0
      vertex -4.5 -35.5 1.5
    endloop
  endfacet
  facet normal 0 1 0
    outer loop
      vertex -4.5 -35.5 1.5
      vertex -1.5 -35.5 0
      vertex -4.5 -35.5 0
    endloop
  endfacet
  facet normal 1 0 0
    outer loop
      vertex -4.5 -32.5 0
      vertex -4.5 -32.5 1.5
      vertex -4.5 -33.5 1.5
    endloop
  endfacet
  facet normal 1 0 0
    outer loop
      vertex -4.5 -33.5 0
      vertex -4.5 -32.5 0
      vertex -4.5 -33.5 1.5
    endloop
  endfacet
  facet normal 0 -1 0
    outer loop
      vertex -1.5 -32.5 0
      vertex -1.5 -32.5 1.5
      vertex -4.5 -32.5 1.5
    endloop
  endfacet
  facet normal 0 -1 0
    outer loop
      vertex -4.5 -32.5 0
      vertex -1.5 -32.5 0
      vertex -4.5 -32.5 1.5
    endloop
  endfacet
  facet normal -1 0 0
    outer loop
      vertex -1.5 -32.5 1.5
      vertex -1.5 -32.5 0
      vertex -1.5 -33.5 1.5
    endloop
  endfacet
  facet normal -1 0 0
    outer loop
      vertex -1.5 -33.5 1.5
      vertex -1.5 -32.5 0
      vertex -1.5 -33.5 0
    endloop
  endfacet
  facet normal 0 1 0
    outer loop
      vertex -1.5 -33.5 1.5
      vertex -1.5 -33.5 0
      vertex -4.5 -33.5 1.5
    endloop
  endfacet
  facet normal 0 1 0
    outer loop
      vertex -4.5 -33.5 1.5
      vertex -1.5 -33.5 0
      vertex -4.5 -33.5 0
    endloop
  endfacet
endsolid OpenSCAD_Model
