%
M48
M72
T01C0.0236
T02C0.0320
T03C0.0400
T04C0.0600
%
T01
X7350Y2350
T02
X7850Y3100
X8850Y3100
X8850Y4100
X7850Y4100
X7100Y4100
X6100Y4100
X5850Y5350
X6850Y5350
X7850Y5350
X8850Y5350
X8850Y6850
X8850Y7850
X7850Y7850
X6850Y7850
X6850Y6850
X7850Y6850
X5850Y6850
X4850Y6850
X4850Y7850
X5850Y7850
X3777Y7527
X2893Y7350
X3600Y6643
X3350Y5350
X4350Y5350
X4600Y3600
X5100Y2850
X5100Y1850
X6350Y1850
X6350Y2850
X8850Y1850
X9850Y1850
X3600Y3600
X2850Y2850
X2850Y1850
T03
X1850Y2850
X1850Y3850
X1850Y4850
X1850Y5850
X1850Y6850
T04
X850Y850
X1850Y850
X2850Y850
X3850Y850
X4850Y850
X5850Y850
X6850Y850
X7850Y850
X8850Y850
X9850Y850
X9850Y8850
X8850Y8850
X7850Y8850
X6850Y8850
X5850Y8850
X4850Y8850
X3850Y8850
X2850Y8850
X1850Y8850
X850Y8850
X850Y7850
X850Y6850
X850Y5850
X850Y4850
X850Y3850
X850Y2850
X850Y1850
M30
