G75*
%MOIN*%
%OFA0B0*%
%FSLAX24Y24*%
%IPPOS*%
%LPD*%
%AMOC8*
5,1,8,0,0,1.08239X$1,22.5*
%
%ADD10C,0.0000*%
%ADD11OC8,0.0520*%
%ADD12OC8,0.0630*%
%ADD13C,0.0630*%
%ADD14C,0.0104*%
%ADD15OC8,0.0900*%
%ADD16C,0.0600*%
%ADD17OC8,0.0760*%
%ADD18C,0.0160*%
%ADD19R,0.0356X0.0356*%
D10*
X000100Y000100D02*
X000100Y009596D01*
X010470Y009596D01*
X010470Y000100D01*
X000100Y000100D01*
D11*
X003600Y003600D03*
X004600Y003600D03*
X005100Y002850D03*
X005100Y001850D03*
X006350Y001850D03*
X006350Y002850D03*
X006100Y004100D03*
X007100Y004100D03*
X007850Y004100D03*
X008850Y004100D03*
X008850Y003100D03*
X007850Y003100D03*
X008850Y001850D03*
X009850Y001850D03*
X008850Y006850D03*
X008850Y007850D03*
X007850Y007850D03*
X006850Y007850D03*
X006850Y006850D03*
X007850Y006850D03*
X005850Y006850D03*
X004850Y006850D03*
X004850Y007850D03*
X005850Y007850D03*
X004350Y005350D03*
X003350Y005350D03*
D12*
X002850Y002850D03*
X002850Y001850D03*
X006850Y005350D03*
X007850Y005350D03*
X008850Y005350D03*
D13*
X005850Y005350D03*
D14*
X003566Y006798D02*
X003514Y006850D01*
X003686Y006850D01*
X003807Y006729D01*
X003807Y006557D01*
X003686Y006436D01*
X003514Y006436D01*
X003393Y006557D01*
X003393Y006729D01*
X003514Y006850D01*
X003546Y006772D01*
X003654Y006772D01*
X003729Y006697D01*
X003729Y006589D01*
X003654Y006514D01*
X003546Y006514D01*
X003471Y006589D01*
X003471Y006697D01*
X003546Y006772D01*
X003579Y006694D01*
X003621Y006694D01*
X003651Y006664D01*
X003651Y006622D01*
X003621Y006592D01*
X003579Y006592D01*
X003549Y006622D01*
X003549Y006664D01*
X003579Y006694D01*
X002859Y007505D02*
X002807Y007557D01*
X002979Y007557D01*
X003100Y007436D01*
X003100Y007264D01*
X002979Y007143D01*
X002807Y007143D01*
X002686Y007264D01*
X002686Y007436D01*
X002807Y007557D01*
X002839Y007479D01*
X002947Y007479D01*
X003022Y007404D01*
X003022Y007296D01*
X002947Y007221D01*
X002839Y007221D01*
X002764Y007296D01*
X002764Y007404D01*
X002839Y007479D01*
X002872Y007401D01*
X002914Y007401D01*
X002944Y007371D01*
X002944Y007329D01*
X002914Y007299D01*
X002872Y007299D01*
X002842Y007329D01*
X002842Y007371D01*
X002872Y007401D01*
X003743Y007682D02*
X003691Y007734D01*
X003863Y007734D01*
X003984Y007613D01*
X003984Y007441D01*
X003863Y007320D01*
X003691Y007320D01*
X003570Y007441D01*
X003570Y007613D01*
X003691Y007734D01*
X003723Y007656D01*
X003831Y007656D01*
X003906Y007581D01*
X003906Y007473D01*
X003831Y007398D01*
X003723Y007398D01*
X003648Y007473D01*
X003648Y007581D01*
X003723Y007656D01*
X003756Y007578D01*
X003798Y007578D01*
X003828Y007548D01*
X003828Y007506D01*
X003798Y007476D01*
X003756Y007476D01*
X003726Y007506D01*
X003726Y007548D01*
X003756Y007578D01*
D15*
X003850Y008850D03*
X004850Y008850D03*
X005850Y008850D03*
X006850Y008850D03*
X007850Y008850D03*
X008850Y008850D03*
X009850Y008850D03*
X002850Y008850D03*
X001850Y008850D03*
X000850Y008850D03*
X000850Y007850D03*
X000850Y006850D03*
X000850Y005850D03*
X000850Y004850D03*
X000850Y003850D03*
X000850Y002850D03*
X000850Y001850D03*
X000850Y000850D03*
X001850Y000850D03*
X002850Y000850D03*
X003850Y000850D03*
X004850Y000850D03*
X005850Y000850D03*
X006850Y000850D03*
X007850Y000850D03*
X008850Y000850D03*
X009850Y000850D03*
D16*
X001850Y002850D03*
X001850Y003850D03*
X001850Y004850D03*
D17*
X001850Y005850D03*
X001850Y006850D03*
D18*
X002350Y007350D01*
X002893Y007350D01*
X002643Y006643D02*
X001850Y005850D01*
X001850Y004850D01*
X002350Y004350D01*
X004600Y004350D01*
X005850Y004350D01*
X006100Y004100D01*
X006600Y004600D01*
X008100Y004600D01*
X008850Y005350D01*
X008850Y006100D01*
X009350Y006100D01*
X009350Y007350D01*
X008850Y007850D01*
X009850Y008850D01*
X007850Y008850D02*
X007850Y007850D01*
X006850Y007850D02*
X006850Y008850D01*
X005850Y008850D02*
X005850Y007850D01*
X004850Y007850D02*
X004100Y007850D01*
X003777Y007527D01*
X003600Y006643D02*
X002643Y006643D01*
X003600Y006643D02*
X004643Y006643D01*
X004850Y006850D01*
X004850Y007850D02*
X004850Y008850D01*
X007850Y006850D02*
X008850Y006850D01*
X008100Y004600D02*
X008600Y004100D01*
X008850Y004100D01*
X008850Y003100D02*
X008850Y001850D01*
X009850Y001850D02*
X009850Y000850D01*
X007850Y000850D02*
X007850Y003100D01*
X007350Y002350D02*
X004100Y002350D01*
X003600Y001850D01*
X002850Y001850D01*
X000850Y001850D01*
X001850Y002850D02*
X002850Y002850D01*
X002100Y003600D02*
X003600Y003600D01*
X004600Y003600D02*
X004600Y004350D01*
X005100Y002850D02*
X006350Y002850D01*
X007100Y003600D01*
X007100Y004100D01*
X006350Y001850D02*
X006350Y001350D01*
X005850Y000850D01*
X005100Y001100D02*
X004850Y000850D01*
X005100Y001100D02*
X005100Y001850D01*
X002100Y003600D02*
X001850Y003850D01*
D19*
X007350Y002350D03*
M02*
